<?xml version="1.0" encoding="UTF-8"?>
<svg id="Capa_1" xmlns="http://www.w3.org/2000/svg" version="1.1" viewBox="0 0 612 612">
  <!-- Generator: Adobe Illustrator 29.0.1, SVG Export Plug-In . SVG Version: 2.1.0 Build 192)  -->
  <defs>
    <style>
      .st0 {
        fill: #7cb8ff;
      }
    </style>
  </defs>
  <g id="Right">
    <path class="st0" d="M277.6,178.4h0c-5.2-4.6-11.9-7.6-19.4-7.6-15.8,0-28.7,12.9-28.7,28.7s3.6,15.8,9.4,21.1h-.1c0,.1,91.7,84.1,91.7,84.1l-91.7,84.1h.1c-5.7,5.3-9.4,12.8-9.4,21.2,0,15.8,12.9,28.7,28.7,28.7s14.2-2.9,19.3-7.6h.1c0,.1,114.7-105.2,114.7-105.2,5.9-5.5,9.3-13.1,9.3-21.2s-3.4-15.7-9.3-21.2l-114.7-105.1ZM306-1.3C137-1.3,0,135.7,0,304.7s137,306,306,306,306-137,306-306S475-1.3,306-1.3ZM306,553.4c-137.1,0-248.6-111.5-248.6-248.6S168.9,56.1,306,56.1s248.6,111.5,248.6,248.6-111.5,248.7-248.6,248.7Z"/>
  </g>
</svg>