<?xml version="1.0" encoding="UTF-8"?>
<svg id="Ebene_1" xmlns="http://www.w3.org/2000/svg" version="1.1" viewBox="0 0 141.7 18.2">
  <!-- Generator: Adobe Illustrator 29.0.1, SVG Export Plug-In . SVG Version: 2.1.0 Build 192)  -->
  <defs>
    <style>
      .st0 {
        fill: #fff;
      }

      .st1 {
        fill: #fb0;
      }

      .st2 {
        fill: #3a3a3a;
      }

      .st3 {
        fill: #005bc4;
      }

      .st4 {
        display: none;
      }

      .st5 {
        fill: #4f4f4f;
      }
    </style>
  </defs>
  <g class="st4">
    <path class="st1" d="M50.7,8.4h4.1c2,0,2,1.1,1.7,1.9s-.8,1.2-1.5,1.5c.6.2,1,.8.7,1.9-.5,1.5-2.1,2.3-3.5,2.3h-4.3l2.7-7.6ZM51,14.1h1.4c.5,0,1-.1,1.2-.7.2-.4,0-.7-.6-.7h-1.5l-.5,1.4ZM52,11.3h1.2c.5,0,.8-.1,1-.6.1-.4-.1-.5-.6-.5h-1.2l-.4,1.2Z"/>
    <path class="st1" d="M58.7,8.4h6.3l-.7,1.9h-3.9l-.3.9h3.6l-.6,1.8h-3.6l-.3.9h4l-.7,1.9h-6.4l2.7-7.6Z"/>
    <path class="st1" d="M67.2,10.3h-2.1l.7-1.9h6.6l-.7,1.9h-2.1l-2,5.6h-2.3l2-5.6Z"/>
    <path class="st1" d="M74.4,8.4h2.3v7.6c0,0-2.3,0-2.3,0v-1.1c0,0-2.3,0-2.3,0l-.7,1.1h-2.3l5.4-7.6ZM74.5,13.2l.2-2.3h0l-1.6,2.3h1.4Z"/>
    <path class="st2" d="M80.1,8.4h5.8l-.7,1.9h-3.5l-.3.9h3l-.6,1.8h-3l-1,2.9h-2.3l2.7-7.6Z"/>
    <path class="st2" d="M86.8,8.4h2.3l-2,5.6h3.3l-.7,1.9h-5.7l2.7-7.6Z"/>
    <path class="st2" d="M93.3,8.4h2.3l-2.7,7.6h-2.3l2.7-7.6Z"/>
    <path class="st2" d="M100.1,15.1c-.8.7-1.7,1-2.5,1-2.2,0-3-1.7-2.2-3.9,1-2.9,3.4-4,5.2-4s2.8,1.1,2.5,2.8h-2.2c.1-.6-.2-.9-.8-.9-1.6,0-2.1,1.7-2.3,2.2-.2.7-.4,1.9,1,1.9s1.2-.3,1.5-.8h-1l.6-1.6h3.1l-1.5,4.2h-1.5l.2-.8Z"/>
    <path class="st2" d="M105.3,8.4h2.3l-.9,2.6h2.2l.9-2.6h2.3l-2.7,7.6h-2.3l1.1-3h-2.2l-1.1,3h-2.3l2.7-7.6Z"/>
    <path class="st2" d="M114.4,10.3h-2.1l.7-1.9h6.6l-.7,1.9h-2.1l-2,5.6h-2.3l2-5.6Z"/>
  </g>
  <g class="st4">
    <path class="st1" d="M34,12.1s-2.7,1.3-1.8,3.8c1,2.9,5.7,2.5,8.5,1.3,2.3-1,.4-1.8.4-1.8l-2.4-1.4-3.7-2.3-.9.3Z"/>
    <path class="st2" d="M40.4,14.3c-1.7-.7-3-1.8-4.2-2.3.7-.3,1.2-.7,1.6-1.1.4-.4.5-.9.5-1.3,1.3.9,2.8.9,3.6,1,.8,0,1.6.2,1.7.6,0,0,.2-4.4-8.8-7.3,0,0,2.7,1.2,3.5,2.2,0,0-1,0-1.4.6-.2.3-.2.8,0,1.3-.2,0-.3,0-.5,0L22.2,0l1.5,3.2-1.4-.5.4.8s.6,1.1,2,3.5c1.1,1.9,3,2.8,5.6,2.7,0,0,.2,0,.3,0,.6,0,1.7-.1,2.6-.2,0,.4,0,.8,0,1.3.1.6.3,1,.7,1.2-.7.4-1.4,1-1.7,1.9h0s0,0,0,0h0c-.2.5-.3,1.2,0,1.9h0c0,.2.1.3.2.5,0,.1.2.3.3.4,1.6,1.9,5.5,1.6,7.9.6,0,0,0,0,0,0,.2,0,.4-.2.6-.3,0,0,0,0,.1,0,.2-.1.4-.2.6-.3,2.4-1.4,3.2-3.1,3.2-3.1,0,0-2.4,1.7-4.8.7ZM41,7.8c.7.3,1.7,2,1.7,2-.9-.1-2.6-.7-2.8-1.4-.2-.7.4-.9,1.1-.6ZM30.2,9.1c-.9,0-1.8,0-2.5-.3-1.1-.4-1.9-1.1-2.5-2-.7-1.2-1.2-2.1-1.5-2.7l1.3.4-1.3-2.8,11.3,6.3c-.3,0-.6.1-.9.3l-7.2-2.9,6.2,3.5c-1.1.1-2.3.2-2.9.2ZM32.3,15.6c-.1-.5,0-1,0-1.4.7.4,1.7.7,3,.2,0,0-1,1.2-3.1,1.2ZM35.6,17.9c-.5,0-.9-.2-1.4-.4-.2-.1-.4-.2-.6-.3.9-.2,2-.7,3.2-1.9,0,0-.1,1.3-1.1,2.6ZM38.7,17.6c-.2,0-.5.1-.8.2.4-.3.8-.8.8-1.5,0,0,.2.6,0,1.3ZM42.1,16.1c-.1-.3-.2-1-.2-1,.8,0,1.7-.2,1.7-.2-.6.7-1.5,1.2-1.5,1.2Z"/>
    <path class="st1" d="M36.5,8.4s-2.6-.7-3,1.4c-.2.8.2,1.6.6,1.9.2,0,.5-.2,1.1-.2-.1,0-.3-.3-.5-.6.2,0,.4,0,.6,0,0,0-.6-.2-.8-1h0c0,0,.2,0,.3.1,0,0-.5-.4,0-1,.3-.4.8-.6,1.8-.6Z"/>
    <path class="st0" d="M30.2,9.1c-.9,0-1.8,0-2.5-.3-1.1-.4-1.9-1.1-2.5-2-.7-1.2-1.2-2.1-1.5-2.7l1.3.4-1.3-2.8,11.3,6.3c-.3,0-.6.1-.9.3l-7.2-2.9,6.2,3.5c-1.1.1-2.3.2-2.9.2Z"/>
    <path class="st0" d="M41,7.8c.7.3,1.7,2,1.7,2-.9-.1-2.6-.7-2.8-1.4-.2-.7.4-.9,1.1-.6Z"/>
    <path class="st0" d="M42.1,16.1c-.1-.3-.2-1-.2-1,.8,0,1.7-.2,1.7-.2-.6.7-1.5,1.2-1.5,1.2Z"/>
  </g>
  <g>
    <path class="st3" d="M49.1,8.1c-.4-.2-1-.3-1.5-.5-.2,0-.3-.1-.5-.2-.9-.5-1-.8-1.5-1.6-.7-1.1-2.3-1.7-3.4-2.3-.7-.3-1.4-.7-2.2-1-.3,0-.7-.1-1-.1s-.7,0-1,0-.2,0-.2,0c-1.7,0-3.1-.6-4.7-1-.6-.2-1.4-.4-2-.5,0,0,0,0,0,0,0,0,0,0,0,0,2,.6,3.9,1.6,6,1.9.5,0,.9,0,1.3,0s.7,0,1.1,0h.1c.5,0,1.7.6,2.1.8,1,.5,2.5,1.2,3.1,2.1.2.3.3.6.5,1-1.2-.3-1.6-1.6-2.7-2.1-.3-.1-.7-.2-1-.2s-.2,0-.3,0c.2.2.5.2.7.5-.2,0-.4,0-.6,0-.4,0-.7,0-1.1.1,0,0-.3.1-.4.1,0,0,0,0,0,0h.5s0,0,0,0c.1,0,.3,0,.4,0,0,0,0,0,0,0-1.6.2-3.2,1.1-4,2.5,0,0-.2.2-.2.3,0,0,0,0,0,0s0,0,0,0c0,0,.2-.1.3-.2.2,0,.4-.2.6-.2h0c-.9.8-1.7,1.8-2,3-.2.8-.2,1.5-.2,2.3l-.2-.5c-.2-.8-.4-1.6-.2-2.5,0,0,0,0,0,0,0,0,0,0,0,0-.3.4-.4.9-.6,1.3l-.3.9c-.7-1.8-.8-4,.6-5.5h0c0,0-.4,0-.4,0,.9-1.1,2.2-1.8,3.6-2.2h0c0,0-1.1-.5-1.1-.5.2,0,.4,0,.5,0s.5,0,.7.1c0,0,0,0,0,0,0,0-.2-.3-.3-.3-.6-.7-1.5-1.2-2.4-1.4-.3,0-.6-.1-.9-.1-.4,0-.9.1-1.2.5-.4.5,0,1.3,0,1.9,0,.6-.9,1-.2,1.5l.3.2c-.4,0-1-.2-1.1-.7,0-.4.3-.6.4-.9.2-.7-.3-1.5,0-2.1,0-.1.3-.4.5-.5,0,0,.3-.1.3-.2-1.2-.9-2.7-1.4-4.2-1.4s-1.3,0-1.9.2c0,0,0,0,.1,0,.8.2,1.5.3,2.2.7,0,0,.2,0,.3.2-.8-.2-1.7-.3-2.6-.3s-2.3.2-3.5.6c-.8.3-1.7.6-2.3,1.1,0,0-.2,0-.1.2.5-.1,1.1-.2,1.6-.2.3,0,.7-.1,1-.1.1,0,.3,0,.4,0,0,0,0,0,0,0s0,0,0,0c-1.4.3-2.8.8-4,1.5-.7.4-1.4.9-1.9,1.5,0,0-.6.7-.5.8,1-.6,2.2-1,3.4-1.1,0,0,0,0,0,0s0,0,0,0c-2,.7-4.1,1.8-5.4,3.5-.2.2-.4.5-.5.8l.9-.5c1.4-.6,2.8-.9,4.3-.9s2,.1,3,.4l1.3.5c-.8-.2-1.7-.3-2.6-.3-1.4,0-2.8.3-4,1.1h.3c.3,0,.6,0,.9,0,1,0,2,.2,3,.6h.2c0,.1.5.4.6.4,2,1.1,3.3,2.1,5.5,2.1s.7,0,1.1,0c0,0,.2,0,.3,0,0,0-.1,0-.2,0-.7.3-1.4.4-2.2.4s-1.5-.1-2.1-.4c0,0,.2.4.3.4.9,1,2.3,1.5,3.7,1.5s1.3-.1,1.8-.4c-.7.5-1.5.7-2.4.8,0,0,0,0,0,0,.4.2,1,.3,1.6.3s.6,0,.8,0c1.8-.3,2.9-1.7,4.8-1.8,0,0,.1,0,.2,0,.3,0,.6,0,1,0l-.2.2-.4.2c.4,0,.6,0,.8,0s.3,0,.4,0c0,0,.3,0,.3,0,0,0,0,.1-.1.2,0,0,0,0,0,0h0c0,0-.1.1-.2.2,0,0,0,0,0,0,0,0,0,0,0,.1,0,0,.1,0,.2,0h0s0,0,0,0h.8c-.2.2-.4.3-.6.4,0,0,0,0,0,0h0c.4,0,.7,0,1.1-.2,0,0-.2.2-.3.3-.1,0-.2.2-.4.2h0c.2.1.3.1.5.1.3,0,.5,0,.8,0l-.5.3c0,0,0,0,0,0,0,0,.1,0,.2,0,.4,0,1,0,1.2-.2.2,0,.3-.2.2-.4.6-.1,1.3-.4,1.8-.7.1,0,.4-.2.5-.4s0,0,0-.1c-.8.2-1.7.4-2.6.5l.4-.3.2-.3s-.3,0-.4,0c-.1,0-.2-.1-.4-.1-.1,0-.3,0-.4,0l.5-.3.3-.5c-.2-.1-.5-.2-.7-.2s-.3,0-.4,0l.7-1c-.2-.1-.4-.2-.6-.2s-.4,0-.5,0l.5-.7c-.2-.1-.4-.2-.7-.2s-.2,0-.3,0v-1c-.1,0-.2,0-.2,0-.2,0-.3,0-.5,0,0,0,0,0,0,0s0,0,0,0c.5-.2.9-.4,1.4-.5.2.4.5.5.8.7.2-.2.3-.5.4-.8,0,.2.2.4.3.5,0,.3,0,.5.1.5s.1,0,.3,0c.3-.1.5-.4.6-.7,0,.4.2.6.2,1h0c.3,0,.6-.1.9-.3,0,0,.2-.2.3-.2s0,0,0,0c.2.2.1.6.1.9.4,0,.7-.2,1-.5-.3.8-.8,1.6-1.2,2.3h0c.3,0,.5-.2.8-.4.6-.4,1.1-.9,1.5-1.5.1-.2.3-.5.4-.6,0,0,.2,0,.2-.1.4-.3.7-.6,1-1-.4-.3-.7-.8-.6-1.3v.5c0,.2.6.7.7.7h0s0,0,0,0c0,0,0,0,.1-.1l.2-.5h.1c0,0,0-.1,0-.1.2-.4.3-.6-.2-.9ZM34.5,3.7h0c.3,0,1.3.3,1.6.5.3.2,0,.8,0,1.1h0s0,0,0,0c0,0,0-.2,0-.3-.1-.2-.4-.4-.7-.4,0,.1.1.2.2.3,0,.2,0,.5,0,.7l-.3-.3h-.3c.1,0,.2.3,0,.5,0,0-.2.3-.2.3,0,0,0,0-.1,0-.1,0-.2,0-.2-.2,0-.3.3-.9.2-1.3,0-.2-.5-.9,0-.9ZM43.6,15.6l-.5.2c-.1,0-.9.3-1.1.3h0v-.2c-.1,0,1.6-.3,1.6-.3ZM42.1,15.2c0,.1-.4.3-.5.3s0,0,0,0l-.2-.4h.7ZM41.7,14.1s0,0,0,0c0,.3-.3.4-.6.5l-.2-.4c0,0,.6-.2.8-.2ZM41.3,13s0,0,0,0c-.2.3-.3.6-.6.8,0-.1-.2-.4-.1-.5,0,0,.6-.3.7-.3ZM40.6,12.2h0c.2,0,0,0,0,.2,0,0-.1.2-.2.2,0,0,0,0,0,0s0,0,0,0v-.4s.2,0,.2,0ZM41.7,10.8c-.1-.1-.3-.2-.4-.4,0,0,0,0,0,0,0,0,.4,0,.6,0s0,0,0,0c0,0-.2.5-.3.5ZM42.8,10.9s-.1-.3-.1-.4c0-.1-.2-.2-.2-.4h.8c-.1.3-.3.6-.5.7ZM44,11.2s0,0,0,0c0-.2-.2-.4-.1-.7l.6.3c0,0-.3.3-.5.3ZM43.3,7.5c-.2,0-.4,0-.5-.1-.2,0-.3-.4-.5-.6-.2-.2-.3-.4-.5-.6.8.2,1.5.6,2.1,1l.8.3h-1.4ZM45.8,11.3c0,0-.3.3-.4.3s0,0,0,0c0-.2,0-.3,0-.5h.5c0,.1,0,.1,0,.2ZM45.7,12.8l.9-1.6h.5c-.3.6-.8,1.2-1.3,1.6ZM49.1,9.1s0,0,0,0c-.3,0-.6-.4-.6-.7h0s.2.1.2.1c0,0,.6.5.5.6Z"/>
    <path class="st3" d="M45.3,17.2h0Z"/>
    <g>
      <path class="st3" d="M51.5,7.2h-3.5c.1,0,.2,0,.4.1.3.1.7.2,1,.4.8.4.5,1.1.4,1.4h0s1.1,0,1.1,0c1.7,0,1.7,1.3,1.1,2.8-.4,1.1-1.1,2.2-2.2,2.6-.9.4-1.8.2-2.7.2l1.4-3.8c-.1.1-.3.2-.4.3,0,0-.1,0-.2,0,0,0,0,.1-.1.2,0,.1-.1.2-.2.3-.5.7-1.3,1.4-2.2,2l-1,2.8h0s4,0,4,0c1.8,0,3.4-1,4.6-2.6.9-1.2,1.7-3.2,1.7-4.6,0-1.9-1.4-2.5-3-2.5ZM49.1,8.1c-.4-.2-1-.3-1.5-.5l-1.9,5.2.9-1.6h.5c-.3.6-.8,1.2-1.3,1.6l-.2.4c.6-.4,1.1-.9,1.5-1.5.1-.2.3-.5.4-.6,0,0,.2,0,.2-.1.4-.3.7-.6,1-1-.4-.3-.7-.8-.6-1.3v.5c0,.2.6.7.7.7h0s0,0,0,0c0,0,0,0,.1-.1l.2-.5h.1c0,0,0-.1,0-.1.2-.4.3-.6-.2-.9ZM49.1,9.1s0,0,0,0c-.3,0-.6-.4-.6-.7h0s.2.1.2.1c0,0,.6.5.5.6Z"/>
      <path class="st5" d="M109.5,7.7l-.8,2s0,0,0,0c0,0-.2-.1-.2-.1-1.3-.7-3.5-.8-4.8.5-.9.9-1.7,2.9-1.4,3.9.3.9,1.5,1,2.4.9,0,0,.2,0,.2,0l1-2.7h2.1s-1.6,4.2-1.6,4.2c-.6.3-1.3.4-1.9.5h-.7c-.2,0-.4,0-.6,0-.9,0-1.8-.2-2.4-.8-1.1-1-.7-2.7-.2-4.2,1.1-2.9,3.1-4.6,6-4.8h0s.9,0,.9,0h.6c.6.1,1.1.3,1.5.5Z"/>
      <polygon class="st5" points="125.7 7.2 125.7 7.3 125 9.2 122.5 9.2 119.7 16.9 117.7 16.9 120.5 9.2 118.1 9.2 118.8 7.2 125.7 7.2"/>
      <polygon class="st3" points="58.4 10.9 61.3 11 60.5 13 56.9 13 58.4 10.9"/>
      <polygon class="st3" points="62.9 7.2 62.1 9.1 57.9 9.1 57.3 10.9 58 10.9 56.5 13 56.5 13 55.8 14.9 60.1 14.9 59.4 16.8 53.1 16.8 56.6 7.2 62.9 7.2 62.9 7.2"/>
      <polygon class="st3" points="81.9 16.8 79.8 16.8 79.7 14.4 76.7 14.4 78.2 12.4 79.7 12.4 79.6 9.9 74.5 16.8 72.3 16.8 79.6 7.2 81.6 7.2 81.9 16.8"/>
      <polygon class="st5" points="87.2 9.2 86.5 11 90.3 11 89.6 13 85.8 13 84.3 16.9 82.3 16.8 85.9 7.2 91.9 7.2 91.2 9.2 87.2 9.2"/>
      <polygon class="st3" points="76.3 7.2 75.6 9.2 73.1 9.2 70.3 16.8 68.3 16.8 71.1 9.2 68.7 9.2 69.4 7.2 76.3 7.2"/>
      <polygon class="st3" points="66.5 14.9 65.7 16.8 60.3 16.8 63.9 7.2 66 7.2 63.1 14.9 66.5 14.9"/>
      <polygon class="st5" points="95.3 14.9 94.6 16.9 89.2 16.9 92.8 7.2 94.8 7.2 92 14.9 95.3 14.9"/>
      <polygon class="st5" points="98.2 9.8 101 7.6 97.6 16.9 95.6 16.9 98.2 9.8"/>
      <polygon class="st5" points="101.2 7.2 101.2 7.2 98.3 9.4 99.1 7.2 101.2 7.2"/>
      <polygon class="st5" points="113.3 11 111.9 13 110.6 13 109.1 16.9 107.1 16.9 110.6 7.2 112.7 7.2 111.3 11 113.3 11"/>
      <polygon class="st5" points="118.4 7.2 114.8 16.9 112.8 16.9 114.2 13 112.2 13 113.7 11 115 11 116.4 7.2 118.4 7.2"/>
    </g>
  </g>
</svg>