<?xml version="1.0" encoding="UTF-8"?>
<svg id="Ebene_1" xmlns="http://www.w3.org/2000/svg" version="1.1" viewBox="0 0 141.7 18.2">
  <!-- Generator: Adobe Illustrator 29.0.1, SVG Export Plug-In . SVG Version: 2.1.0 Build 192)  -->
  <defs>
    <style>
      .st0 {
        fill: #fff;
      }

      .st1, .st2 {
        fill: #fb0;
      }

      .st1, .st3 {
        display: none;
      }

      .st4 {
        fill: #005bc4;
      }
    </style>
  </defs>
  <path class="st1" d="M40.4,14.3c-1.7-.7-3-1.8-4.2-2.3.7-.3,1.2-.7,1.6-1.1.4-.4.5-.9.5-1.4,1.3.9,2.8.9,3.6,1,.8,0,1.6.2,1.7.6,0,0,.2-4.4-8.8-7.3,0,0,2.7,1.2,3.5,2.2,0,0-1,0-1.4.6-.2.3-.2.8,0,1.3-.2,0-.3,0-.5,0L22.2,0l1.5,3.2-1.4-.5.4.8s.6,1.1,2,3.6c1.1,1.9,3,2.8,5.6,2.7,0,0,.2,0,.3,0,.6,0,1.7-.1,2.6-.2,0,.4,0,.8,0,1.3.1.6.3,1,.7,1.2-.8.4-1.5,1.1-1.8,1.9h0c-.2.5-.3,1.2,0,1.9h0c0,.2.1.3.2.5,0,.1.2.3.3.4,1.6,1.9,5.5,1.6,7.9.6,0,0,0,0,0,0,.2,0,.4-.2.6-.3,0,0,0,0,.1,0,.2-.1.4-.2.6-.3,2.4-1.4,3.2-3.1,3.2-3.1,0,0-2.4,1.7-4.8.7ZM41,7.8c.7.3,1.7,2,1.7,2-.9-.1-2.6-.7-2.8-1.4s.4-.9,1.1-.6ZM38.8,16.3s.2.6,0,1.3c-.2,0-.5.1-.8.2.4-.3.8-.8.8-1.5ZM26.9,5.3l6.2,3.5c-1.1.1-2.3.2-3,.3-.9,0-1.8,0-2.5-.3-1.1-.4-1.9-1.1-2.5-2.1-.7-1.2-1.2-2.1-1.5-2.7l1.3.4-1.3-2.8,11.3,6.3c-.3,0-.6.1-.9.3l-7.2-2.9ZM33.5,9.8c.4-2.1,3.1-1.4,3.1-1.4-1,0-1.5.2-1.8.6-.4.6,0,1,0,1-.2,0-.3,0-.4-.1h0c.2.8.9,1.1.9,1.1-.2,0-.5,0-.7,0,.2.3.3.6.5.6-.6,0-.9.1-1.1.2-.5-.3-.8-1.1-.6-2ZM35.4,14.4s-1,1.2-3.1,1.2c-.1-.5,0-1,0-1.4.7.4,1.7.7,3.1.2ZM33.6,17.2c.9-.2,2-.7,3.2-2,0,0-.1,1.3-1.1,2.6-.5,0-.9-.2-1.4-.4-.2,0-.4-.2-.6-.3ZM42.1,16.1c-.1-.3-.2-1-.2-1,.8,0,1.7-.2,1.7-.2-.6.7-1.5,1.2-1.5,1.2Z"/>
  <g class="st3">
    <path class="st2" d="M50.7,8.4h4.1c2,0,2,1.1,1.7,1.9-.3.8-.8,1.2-1.5,1.5.6.2,1,.8.7,1.9-.5,1.5-2.1,2.3-3.5,2.3h-4.3l2.7-7.6ZM51,14.1h1.4c.5,0,1-.1,1.2-.7.2-.4,0-.7-.6-.7h-1.5l-.5,1.4ZM52,11.3h1.2c.5,0,.8-.1,1-.6.1-.4-.1-.5-.6-.5h-1.2l-.4,1.2Z"/>
    <path class="st2" d="M58.7,8.4h6.3l-.7,1.9h-3.9l-.3.9h3.6l-.6,1.8h-3.6l-.3.9h4l-.7,1.9h-6.4l2.7-7.6Z"/>
    <path class="st2" d="M67.2,10.3h-2.1l.7-1.9h6.6l-.7,1.9h-2.1l-2,5.6h-2.3l2-5.6Z"/>
    <path class="st2" d="M74.5,8.4h2.3v7.6c0,0-2.3,0-2.3,0v-1.1c0,0-2.3,0-2.3,0l-.7,1.1h-2.3l5.5-7.6ZM74.6,13.2l.2-2.3h0l-1.6,2.3h1.4Z"/>
    <path class="st0" d="M80.1,8.4h5.8l-.7,1.9h-3.5l-.3.9h3l-.6,1.8h-3l-1,2.9h-2.3l2.7-7.6Z"/>
    <path class="st0" d="M86.9,8.4h2.3l-2,5.6h3.3l-.7,1.9h-5.7l2.7-7.6Z"/>
    <path class="st0" d="M93.4,8.4h2.3l-2.7,7.6h-2.3l2.7-7.6Z"/>
    <path class="st0" d="M100.1,15.1c-.8.7-1.7,1-2.5,1-2.2,0-3-1.7-2.2-3.9,1-2.9,3.5-4.1,5.2-4.1s2.8,1.1,2.5,2.8h-2.2c.1-.6-.2-.9-.8-.9-1.6,0-2.1,1.7-2.3,2.2-.2.7-.4,2,1,2s1.2-.3,1.5-.8h-1l.6-1.6h3.1l-1.5,4.2h-1.5l.2-.8Z"/>
    <path class="st0" d="M105.4,8.4h2.3l-.9,2.6h2.2l.9-2.6h2.3l-2.7,7.6h-2.3l1.1-3h-2.2l-1.1,3h-2.3l2.7-7.6Z"/>
    <path class="st0" d="M114.4,10.3h-2.1l.7-1.9h6.6l-.7,1.9h-2.1l-2,5.6h-2.3l2-5.6Z"/>
  </g>
  <g>
    <path class="st4" d="M50.7,8.3c-.4-.2-.9-.3-1.4-.5-.2,0-.3-.1-.5-.2-.8-.4-.9-.8-1.4-1.5-.6-1-2.1-1.6-3.1-2.1-.6-.3-1.3-.7-2-.9-.3,0-.6-.1-.9-.1s-.6,0-.9,0-.2,0-.2,0c-1.6,0-2.9-.5-4.4-.9-.6-.2-1.3-.4-1.9-.4,0,0,0,0,0,0,0,0,0,0,0,0,1.9.6,3.6,1.5,5.6,1.7.4,0,.8,0,1.2,0s.7,0,1,0h.1c.4,0,1.6.6,2,.8.9.4,2.3,1.1,2.9,2,.2.3.3.6.4.9-1.1-.3-1.5-1.5-2.5-1.9-.3-.1-.6-.2-.9-.2s-.2,0-.3,0c.2.2.5.2.6.4-.2,0-.4,0-.6,0-.3,0-.7,0-1,.1,0,0-.3.1-.4.1,0,0,0,0,0,0h.5s0,0,0,0c.1,0,.3,0,.4,0,0,0,0,0,0,0-1.5.1-3,1.1-3.7,2.3,0,0-.1.2-.2.3,0,0,0,0,0,0s0,0,0,0c0,0,.2-.1.3-.2.2,0,.4-.2.6-.2h0c-.9.7-1.6,1.7-1.9,2.8-.2.7-.2,1.4-.2,2.2l-.2-.4c-.2-.8-.3-1.5-.2-2.3,0,0,0,0,0,0,0,0,0,0,0,0-.2.4-.4.8-.6,1.2l-.2.8c-.6-1.7-.7-3.7.5-5.1h0c0,0-.4,0-.4,0,.8-1,2-1.7,3.3-2h0c0,0-1-.4-1-.4.2,0,.3,0,.5,0s.4,0,.7.1c0,0,0,0,0,0,0,0-.2-.3-.3-.3-.6-.6-1.4-1.1-2.2-1.3-.3,0-.5-.1-.8-.1-.4,0-.8.1-1.1.5-.4.5,0,1.2,0,1.8,0,.5-.8.9-.2,1.4l.3.2c-.4,0-1-.2-1-.6,0-.4.3-.6.4-.9.2-.6-.3-1.4,0-2,0-.1.3-.4.4-.5,0,0,.3-.1.2-.2-1.2-.8-2.5-1.3-3.9-1.3s-1.2,0-1.7.2c0,0,0,0,0,0,.7.2,1.4.3,2.1.6,0,0,.2,0,.3.1-.8-.2-1.6-.3-2.4-.3s-2.2.2-3.2.5c-.7.2-1.5.6-2.1,1,0,0-.2,0-.1.1.5-.1,1-.2,1.5-.2.3,0,.6-.1,1-.1.1,0,.3,0,.4,0,0,0,0,0,0,0s0,0,0,0c-1.3.3-2.6.7-3.7,1.4-.6.4-1.3.9-1.8,1.4,0,0-.5.7-.5.7,1-.6,2.1-.9,3.2-1,0,0,0,0,0,0s0,0,0,0c-1.9.6-3.8,1.7-5,3.3-.2.2-.3.5-.5.7l.9-.4c1.3-.5,2.6-.8,4-.8s1.9.1,2.8.4l1.2.4c-.8-.2-1.6-.3-2.4-.3-1.3,0-2.6.3-3.8,1h.2c.3,0,.6,0,.9,0,1,0,1.9.2,2.8.6h.2c0,.1.5.4.6.4,1.9,1,3.1,2,5.1,2s.7,0,1,0c0,0,.2,0,.2,0,0,0-.1,0-.2,0-.6.2-1.3.4-2,.4s-1.4-.1-2-.4c0,0,.2.3.3.4.8.9,2.2,1.4,3.5,1.4s1.2-.1,1.7-.3c-.6.5-1.4.7-2.2.7,0,0,0,0,0,0,.3.2.9.3,1.5.3s.6,0,.8,0c1.7-.3,2.7-1.6,4.5-1.7,0,0,.1,0,.2,0,.3,0,.6,0,.9,0h-.2c0,.1-.4.3-.4.3.3,0,.6,0,.8,0s.3,0,.4,0c0,0,.3,0,.3,0,0,0,0,.1,0,.2,0,0,0,0,0,0h0c0,0-.1.1-.2.2,0,0,0,0,0,0,0,0,0,0,0,.1,0,0,.1,0,.2,0h0s0,0,0,0h.7c-.1.2-.4.3-.6.4,0,0,0,0,0,0h0c.3,0,.7,0,1-.2,0,0-.2.2-.2.2-.1,0-.2.2-.3.2h0c.2,0,.3.1.5.1.3,0,.5,0,.8,0l-.5.3c0,0,0,0,0,0,0,0,.1,0,.2,0,.4,0,.9,0,1.1-.2.2,0,.2-.2.2-.4.6-.1,1.2-.3,1.7-.7.1,0,.3-.2.5-.3s0,0,0,0c-.8.2-1.6.4-2.4.4l.4-.3.2-.3s-.3,0-.4,0c0,0-.2-.1-.3-.1-.1,0-.2,0-.4,0l.4-.3.3-.5c-.2-.1-.4-.2-.7-.2s-.2,0-.4,0l.7-.9c-.2-.1-.3-.2-.5-.2s-.3,0-.5,0l.5-.7c-.2-.1-.4-.2-.6-.2s-.2,0-.3,0v-.9c-.1,0-.2,0-.2,0-.2,0-.3,0-.5,0,0,0,0,0,0,0s0,0,0,0c.4-.2.9-.4,1.3-.5.2.3.5.5.8.6.2-.2.3-.5.4-.7,0,.2.2.3.3.5,0,.2,0,.4.1.4s.1,0,.3,0c.3-.1.4-.3.6-.6,0,.3.2.6.2.9h0c.3,0,.6-.1.8-.3,0,0,.2-.2.3-.2s0,0,0,0c.2.2.1.6,0,.8.4,0,.7-.2,1-.5-.3.7-.7,1.4-1.1,2.1h0c.2,0,.5-.2.7-.4.5-.4,1-.8,1.4-1.4.1-.1.3-.5.4-.6,0,0,.2,0,.2-.1.4-.2.7-.6.9-1-.4-.3-.6-.8-.6-1.2v.4c0,.1.6.7.7.7h0s0,0,0,0c0,0,0,0,0-.1l.2-.5h0s0,0,0-.1c.2-.4.3-.6-.2-.8ZM37,4.2h0c.3,0,1.2.2,1.5.4.3.2,0,.7,0,1h0s0,0,0,0c0,0,0-.2,0-.2-.1-.2-.4-.4-.6-.4,0,0,.1.2.1.3,0,.2,0,.5,0,.7l-.2-.3h-.3c0,0,.1.3,0,.5,0,0-.1.3-.2.3,0,0,0,0-.1,0,0,0-.2,0-.2-.2,0-.3.2-.8.2-1.2,0-.2-.5-.8,0-.8ZM45.5,15.3l-.4.2c-.1,0-.8.3-1,.3h0v-.2c-.1,0,1.5-.3,1.5-.3ZM44.1,14.9c0,0-.3.2-.4.2s0,0,0,0l-.2-.3h.7ZM43.7,13.9s0,0,0,0c0,.3-.3.4-.6.5l-.2-.3c0,0,.5-.2.7-.2ZM43.4,12.9s0,0,0,0c-.2.3-.2.6-.6.8,0-.1-.2-.4-.1-.5,0,0,.5-.3.7-.3ZM42.7,12.2h0c.2,0,0,0,0,.2,0,0-.1.2-.2.2,0,0,0,0,0,0s0,0,0,0v-.4s.2,0,.2,0ZM43.7,10.8c-.1-.1-.3-.2-.4-.4,0,0,0,0,0,0,0,0,.4,0,.5,0s0,0,0,0c0,0-.2.5-.2.5ZM44.8,10.9s0-.3-.1-.3c0-.1-.2-.2-.2-.3h.8c-.1.3-.2.5-.5.7ZM45.9,11.2s0,0,0,0c0-.2-.2-.4-.1-.6l.6.3c0,0-.3.3-.5.3ZM45.2,7.7c-.2,0-.3,0-.5-.1-.2,0-.3-.4-.5-.6-.1-.2-.3-.4-.5-.6.7.2,1.3.6,2,1l.7.3h-1.3ZM47.6,11.3c0,0-.3.3-.4.3s0,0,0,0c0-.1,0-.3,0-.4h.5c0,.1,0,.1,0,.2ZM47.5,12.7l.8-1.5h.4c-.3.6-.7,1.1-1.2,1.5ZM50.7,9.3s0,0,0,0c-.3,0-.5-.4-.6-.6h0s.2.1.2.1c0,0,.5.4.4.5Z"/>
    <path class="st4" d="M47.1,16.8h0Z"/>
    <g>
      <path class="st4" d="M52.9,7.5h-3.3c.1,0,.2,0,.3.1.3.1.7.2,1,.4.8.4.5,1,.4,1.3h0s1.1,0,1.1,0c1.6,0,1.5,1.2,1,2.6-.4,1-1,2-2.1,2.5-.8.4-1.7.2-2.5.2l1.3-3.5c-.1.1-.3.2-.4.3,0,0-.1,0-.2,0,0,0,0,.1-.1.2,0,.1-.1.2-.2.3-.5.7-1.2,1.3-2.1,1.8l-1,2.6h0s3.7,0,3.7,0c1.7,0,3.2-.9,4.3-2.4.8-1.1,1.6-3,1.6-4.2,0-1.7-1.3-2.3-2.8-2.3ZM50.7,8.3c-.4-.2-.9-.3-1.4-.5l-1.8,4.9.8-1.5h.4c-.3.6-.7,1.1-1.2,1.5l-.2.4c.5-.4,1-.8,1.4-1.4.1-.1.3-.5.4-.6,0,0,.2,0,.2-.1.4-.2.7-.6.9-1-.4-.3-.6-.8-.6-1.2v.4c0,.1.6.7.7.7h0s0,0,0,0c0,0,0,0,0-.1l.2-.5h0s0,0,0-.1c.2-.4.3-.6-.2-.8ZM50.7,9.3s0,0,0,0c-.3,0-.5-.4-.6-.6h0s.2.1.2.1c0,0,.5.4.4.5Z"/>
      <path class="st0" d="M106.8,8l-.7,1.9s0,0,0,0c0,0-.2,0-.2-.1-1.2-.6-3.2-.7-4.5.5-.8.8-1.6,2.7-1.3,3.7.2.8,1.4,1,2.2.8,0,0,.2,0,.2,0l.9-2.5h1.9s-1.4,3.9-1.4,3.9c-.6.3-1.2.4-1.8.5h-.7c-.2,0-.4,0-.6,0-.8,0-1.7-.2-2.2-.7-1-.9-.7-2.5-.2-3.9,1-2.7,2.8-4.3,5.6-4.4h0s.8,0,.8,0h.5c.5.1,1,.3,1.4.5Z"/>
      <polygon class="st0" points="121.8 7.5 121.8 7.6 121.1 9.4 118.9 9.4 116.3 16.5 114.4 16.5 117 9.4 114.8 9.4 115.4 7.5 121.8 7.5"/>
      <polygon class="st4" points="59.3 11 61.9 11 61.3 12.9 57.9 12.9 59.3 11"/>
      <polygon class="st4" points="63.4 7.5 62.8 9.3 58.8 9.3 58.2 11 58.9 11 57.5 12.9 57.5 12.9 56.9 14.6 60.9 14.6 60.2 16.5 54.3 16.5 57.6 7.5 63.4 7.5 63.4 7.5"/>
      <polygon class="st4" points="81.1 16.5 79.1 16.5 79.1 14.2 76.3 14.2 77.7 12.3 79.1 12.3 79 10 74.2 16.5 72.2 16.5 79 7.5 80.8 7.5 81.1 16.5"/>
      <polygon class="st0" points="86 9.3 85.4 11 88.9 11 88.3 12.9 84.7 12.9 83.4 16.5 81.5 16.5 84.8 7.5 90.4 7.5 89.8 9.3 86 9.3"/>
      <polygon class="st4" points="75.9 7.5 75.2 9.3 73 9.3 70.3 16.5 68.4 16.5 71.1 9.3 68.9 9.3 69.5 7.5 75.9 7.5"/>
      <polygon class="st4" points="66.8 14.6 66.1 16.5 61.1 16.5 64.4 7.5 66.3 7.5 63.7 14.6 66.8 14.6"/>
      <polygon class="st0" points="93.6 14.7 92.9 16.5 87.9 16.5 91.2 7.5 93.1 7.5 90.5 14.7 93.6 14.7"/>
      <polygon class="st0" points="96.3 9.9 98.9 7.9 95.7 16.5 93.8 16.5 96.3 9.9"/>
      <polygon class="st0" points="99 7.5 99 7.5 96.4 9.5 97.2 7.5 99 7.5"/>
      <polygon class="st0" points="110.3 11 109 12.9 107.8 12.9 106.4 16.5 104.5 16.5 107.8 7.5 109.7 7.5 108.4 11 110.3 11"/>
      <polygon class="st0" points="115 7.5 111.7 16.5 109.8 16.5 111.2 12.9 109.3 12.9 110.7 11 111.9 11 113.2 7.5 115 7.5"/>
    </g>
  </g>
</svg>