<?xml version="1.0" encoding="UTF-8"?>
<svg xmlns="http://www.w3.org/2000/svg" version="1.1" xmlns:cc="http://creativecommons.org/ns#" xmlns:dc="http://purl.org/dc/elements/1.1/" xmlns:inkscape="http://www.inkscape.org/namespaces/inkscape" xmlns:rdf="http://www.w3.org/1999/02/22-rdf-syntax-ns#" xmlns:sodipodi="http://sodipodi.sourceforge.net/DTD/sodipodi-0.dtd" xmlns:svg="http://www.w3.org/2000/svg" viewBox="0 0 239.9 62.3">
  <!-- Generator: Adobe Illustrator 29.0.1, SVG Export Plug-In . SVG Version: 2.1.0 Build 192)  -->
  <defs>
    <style>
      .st0 {
        fill: #4f4f4f;
      }

      .st1 {
        display: none;
      }
    </style>
  </defs>
  <g id="svg4057" inkscape:version="0.91 r13725">
    <sodipodi:namedview id="base" bordercolor="#666666" borderlayer="false" borderopacity="1.0" fit-margin-bottom="0" fit-margin-left="0" fit-margin-right="0" fit-margin-top="0" inkscape:current-layer="layer1" inkscape:cx="271.31351" inkscape:cy="-40.407035" inkscape:document-units="px" inkscape:pageopacity="0.0" inkscape:pageshadow="2" inkscape:showpageshadow="false" inkscape:window-height="666" inkscape:window-maximized="0" inkscape:window-width="1011" inkscape:window-x="2360" inkscape:window-y="241" inkscape:zoom="1.4" pagecolor="#ffffff" showborder="true" showgrid="true" showguides="false">
      <inkscape:grid id="grid4093" originx="-10.04131" originy="-961.96023" type="xygrid"/>
    </sodipodi:namedview>
    <g class="st1">
      <g>
        <path class="st0" d="M72.2,27h9.9c4.8,0,4.8,2.7,4.2,4.5-.6,1.8-1.9,2.8-3.5,3.5,1.4.6,2.5,1.9,1.5,4.5-1.3,3.6-5.1,5.5-8.3,5.5h-10.2l6.4-18ZM72.9,40.8h3.3c1.2,0,2.3-.3,2.8-1.7.4-1.1,0-1.6-1.4-1.6h-3.5l-1.2,3.3ZM75.3,34h2.9c1.2,0,2-.3,2.4-1.5.3-.9-.3-1.2-1.5-1.2h-2.9l-.9,2.7Z"/>
        <path class="st0" d="M91.2,27h15l-1.6,4.6h-9.4l-.8,2.3h8.5l-1.5,4.3h-8.5l-.8,2.3h9.7l-1.6,4.6h-15.4l6.4-18.1Z"/>
        <path class="st0" d="M111.5,31.6h-5.1l1.6-4.6h15.7l-1.6,4.6h-5.1l-4.8,13.5h-5.6l4.9-13.5Z"/>
        <path class="st0" d="M128.9,27h5.5l.2,18.1h-5.8l.2-2.6h-5.8l-1.7,2.6h-5.6l13-18.1ZM129.2,38.6l.4-5.6h0l-3.7,5.6h3.4Z"/>
        <path class="st0" d="M142.5,27h14l-1.6,4.6h-8.4l-.8,2.3h7.2l-1.5,4.3h-7.2l-2.4,6.9h-5.6l6.3-18.1Z"/>
        <path class="st0" d="M158.6,27h5.6l-4.8,13.5h8l-1.6,4.6h-13.6l6.4-18.1Z"/>
        <path class="st0" d="M174.2,27h5.6l-6.4,18.1h-5.6l6.4-18.1Z"/>
        <path class="st0" d="M190.3,43.2c-1.8,1.6-4,2.3-6,2.3-5.3,0-7.2-4.2-5.3-9.3,2.4-6.9,8.3-9.7,12.3-9.7s6.6,2.5,5.9,6.8h-5.3c.3-1.3-.5-2.3-1.8-2.3-3.8,0-5.1,4-5.6,5.3-.6,1.7-1,4.7,2.4,4.7s2.8-.7,3.6-2h-2.5l1.4-3.9h7.4l-3.5,10h-3.5l.5-1.9Z"/>
        <path class="st0" d="M202.9,27h5.6l-2.2,6.3h5.2l2.2-6.3h5.6l-6.4,18.1h-5.6l2.5-7.2h-5.2l-2.5,7.2h-5.6l6.4-18.1Z"/>
        <path class="st0" d="M224.6,31.6h-5.1l1.6-4.6h15.8l-1.6,4.6h-5.1l-4.8,13.5h-5.6l4.8-13.5Z"/>
      </g>
      <path class="st0" d="M47.2,41.4c-4.2-1.7-7.2-4.3-10.2-5.4,1.6-.7,3-1.7,3.9-2.5,1-.9,1.3-2.1,1.2-3.2,3.1,2.1,6.8,2.3,8.7,2.4,1.9,0,3.8.5,4.2,1.4,0,0,.6-10.6-21.2-17.6,0,0,6.5,2.9,8.5,5.3,0,0-2.3,0-3.3,1.3-.5.8-.6,1.9-.2,3.2-.4,0-.8,0-1.2,0L3.1,7l3.6,7.8-3.4-1.2,1,1.9s1.4,2.8,4.7,8.6c2.8,4.5,7.4,6.8,13.6,6.5h.8c1.6,0,4-.3,6.3-.5-.2.9-.1,1.9.1,3.1.3,1.4.8,2.3,1.6,2.9-1.8.9-3.5,2.6-4.3,4.6h0c-.5,1.3-.7,2.8,0,4.6h0c0,.4.3.7.5,1.1s.5.7.7,1c3.8,4.6,13.2,3.8,19.1,1.4.1,0,.2,0,.2,0,.5-.2.9-.4,1.4-.6.1,0,.2,0,.3,0,.5-.2,1-.5,1.5-.8,5.8-3.4,7.8-7.4,7.8-7.4,0,0-5.7,4-11.4,1.6ZM48.6,25.8c1.6.7,4.2,4.8,4.2,4.8-2.1-.3-6.4-1.7-6.8-3.3-.4-1.6,1-2.3,2.6-1.5ZM43.2,46.2s.4,1.4-.1,3.2c-.6.2-1.2.3-1.8.4,1-.8,1.9-1.9,1.9-3.6ZM14.7,19.8l15,8.5c-2.8.3-5.7.5-7.1.6-2.2,0-4.2-.2-6-.8-2.6-.9-4.6-2.5-5.9-4.9-1.7-3-2.9-5.1-3.7-6.5l3.1,1.1-3.1-6.7,27.3,15.1c-.8,0-1.5.3-2.1.6l-17.5-7ZM30.6,30.4c1.1-5.1,7.6-3.5,7.6-3.5-2.4,0-3.7.6-4.4,1.5-1,1.4.2,2.5.2,2.5-.4,0-.7-.2-.9-.3h0c.5,2.1,2.1,2.6,2.1,2.6-.6,0-1.1,0-1.6,0,.4.8.8,1.4,1.2,1.6-1.4,0-2.2.3-2.7.6-1.1-.8-2-2.7-1.5-4.9ZM35.1,41.5s-2.4,2.9-7.4,2.9c-.3-1.1-.2-2.3,0-3.3,1.5,1.1,3.9,1.7,7.3.4ZM30.8,48.4c2.2-.5,4.9-1.7,7.6-4.7,0,0-.3,3.3-2.7,6.3-1.1,0-2.2-.4-3.3-.9-.6-.2-1.2-.4-1.6-.7ZM51.2,45.7c-.3-.8-.4-2.4-.4-2.4,1.8.2,4-.6,4-.6-1.4,1.9-3.6,3-3.6,3Z"/>
    </g>
    <g>
      <path class="st0" d="M78.8,26.7c-.9-.5-2-.7-3.1-1.1-.4-.1-.7-.3-1-.4-1.9-1-2.1-1.7-3.1-3.4-1.4-2.2-4.7-3.6-7-4.7-1.4-.7-2.9-1.5-4.5-2-.7-.2-1.4-.2-2.1-.2s-1.4,0-2,0-.3,0-.5,0c-3.6-.1-6.4-1.1-9.8-2-1.3-.3-3-.8-4.2-.9,0,0,0,0,0,0,0,0-.1,0-.2,0,4.2,1.3,8.1,3.3,12.4,3.9.9.1,1.8.2,2.7.2s1.5,0,2.3,0h.3c.9,0,3.5,1.2,4.4,1.7,2,1,5.2,2.5,6.4,4.4.4.6.6,1.3,1,2-2.5-.6-3.3-3.3-5.5-4.3-.6-.3-1.4-.4-2.1-.4s-.4,0-.7,0c.4.3,1,.5,1.4.9-.4,0-.8,0-1.2,0-.7,0-1.5,0-2.2.3-.1,0-.7.2-.8.3,0,0-.1,0-.1.2h1.1s.1.1.2.1c.3,0,.6,0,.9.1.1,0,.2,0,.1.1-3.3.3-6.6,2.4-8.3,5.2,0,.1-.3.5-.3.6,0,0,0,.1,0,.1s0,0,0,0c.1,0,.4-.3.6-.4.4-.2.9-.4,1.3-.4h0c-1.9,1.6-3.5,3.8-4.2,6.2-.5,1.6-.5,3.2-.4,4.8l-.4-1c-.4-1.7-.8-3.4-.4-5.1,0,0,0,0,0,0,0,0,0,0,0,.1-.5.8-.9,1.8-1.3,2.7l-.5,1.9c-1.4-3.8-1.6-8.3,1.2-11.5h0c0-.1-.8,0-.8,0,1.8-2.3,4.5-3.8,7.4-4.5v-.2c-.1,0-2.3-.8-2.3-.8.4,0,.7-.1,1.1-.1s1,0,1.5.3c0,0,0,0,0-.1,0,0-.5-.6-.6-.7-1.2-1.4-3.2-2.4-5-2.8-.6-.1-1.2-.2-1.8-.2-.9,0-1.8.2-2.4,1-.8,1.1,0,2.7,0,4-.1,1.2-1.8,2.1-.4,3.2l.7.4c-.9,0-2.1-.3-2.2-1.4,0-.8.6-1.2.8-1.9.4-1.4-.7-3,.1-4.4.2-.3.7-.8,1-1,.1,0,.6-.3.5-.4-2.6-1.8-5.7-2.8-8.8-2.8s-2.6.2-3.9.5c0,.1.1.1.2.1,1.6.4,3,.7,4.6,1.4.2,0,.4.2.6.3-1.8-.4-3.6-.6-5.3-.6s-4.8.4-7.2,1.2c-1.6.5-3.4,1.3-4.8,2.3,0,0-.4.2-.2.3,1.1-.2,2.2-.4,3.3-.5.7,0,1.4-.2,2.1-.3.3,0,.6,0,.9,0,0,0,0,0,.1,0s0,0,0,0c-2.9.6-5.7,1.6-8.3,3.1-1.4.8-2.9,2-3.9,3.2-.1.2-1.2,1.5-1.1,1.6,2.2-1.3,4.6-2,7.1-2.3,0,0,0,0,.1,0s0,0,0,0c-4.2,1.4-8.5,3.7-11.2,7.3-.4.5-.7,1-1,1.6l1.9-.9c2.8-1.2,5.9-1.8,9-1.8s4.2.3,6.3.8l2.8,1c-1.8-.4-3.6-.6-5.4-.6-2.9,0-5.9.6-8.4,2.2h.5c.6,0,1.3-.1,1.9-.1,2.1,0,4.2.5,6.3,1.3l.5.2s1.1.6,1.2.7c4.2,2.3,6.9,4.4,11.4,4.4s1.5,0,2.3-.2c.2,0,.3-.1.5-.1,0,0-.2.1-.3.2-1.4.5-2.9.8-4.5.8s-3-.3-4.4-.8c0,0,.5.8.6.9,1.8,2,4.9,3.2,7.7,3.2s2.6-.2,3.8-.7c-1.4,1.1-3.2,1.5-4.9,1.6,0,.1,0,.1.1.2.7.5,2.1.6,3.3.6s1.2,0,1.7-.1c3.8-.7,6.1-3.5,10-3.7.1,0,.3,0,.4,0,.7,0,1.3,0,2,0l-.4.3-.9.4c.8.1,1.3.2,1.8.2s.7,0,.9,0c.1,0,.6,0,.6,0,0,0-.1.3-.2.4,0,0,0,.1-.1.2h-.2c-.1.2-.2.3-.4.4,0,0-.1,0-.2,0,0,0,0,.2.2.3.1,0,.2,0,.4.1h0c0,0,.1,0,.2,0l1.6-.2c-.3.5-.8.7-1.3,1,0,0-.2,0-.2.2h0c.8,0,1.5-.2,2.2-.4,0,0-.5.5-.5.6-.2.2-.5.4-.8.4v.2c.4,0,.7,0,1.1,0,.6,0,1.1,0,1.7-.1l-1.1.6c-.1.1,0,.1.1.2.1,0,.3,0,.5,0,.8,0,2-.1,2.6-.4.3-.2.5-.4.5-.8,1.3-.3,2.7-.8,3.8-1.5.3-.2.8-.5,1-.7s.1-.1.1-.2c-1.8.5-3.6.8-5.4.9l.9-.6.5-.7c0,0-.7-.1-.9-.2-.2,0-.5-.2-.8-.3-.3,0-.6,0-.8,0l1-.6.6-1.1c-.5-.2-1-.3-1.5-.3s-.5,0-.8,0l1.5-2c-.3-.3-.7-.3-1.1-.3s-.7,0-1.1.2l1.1-1.5c-.4-.2-.9-.4-1.4-.4s-.4,0-.6.1v-2c-.2,0-.3,0-.4,0-.3,0-.7.1-1,.1,0,0,0,0-.1,0s-.1,0-.1,0c1-.4,1.9-.9,3-1.1.4.7,1,1.1,1.8,1.4.4-.5.7-1,.8-1.6.1.4.5.8.6,1.1.2.6,0,.9.3.9s.3,0,.6-.2c.7-.3.9-.8,1.3-1.4,0,.7.5,1.3.4,2h0c.7,0,1.3-.3,1.8-.7.2-.1.4-.5.6-.5s.1,0,.2.1c.4.5.3,1.3.2,1.9.9,0,1.5-.5,2.1-1.1-.7,1.7-1.6,3.2-2.6,4.7h0c.6-.2,1.1-.5,1.6-.9,1.2-.9,2.3-1.9,3.2-3.1.2-.3.6-1,.8-1.3.1-.1.3-.1.5-.2.8-.5,1.5-1.3,2-2.2-.9-.6-1.4-1.7-1.3-2.7l.2.9c0,.3,1,1.5,1.3,1.5h0c0,0,0,0,.1,0,0,0,.1-.2.2-.3l.4-1.1h.2c0-.1,0-.2.1-.3.4-.9.6-1.3-.3-1.8ZM48.4,17.5h0c.7,0,2.8.5,3.3.9.6.5.2,1.7,0,2.3h0c0,0,0,0,0,0,0-.2,0-.3-.2-.6-.3-.5-.8-.8-1.4-.9,0,.2.2.4.3.6.2.5.1,1,.1,1.5l-.5-.7-.7-.3c.2.5.3.9.1,1.4,0,.1-.3.6-.5.7,0,0-.2,0-.3,0-.2,0-.4,0-.4-.3-.2-.7.5-1.8.4-2.7,0-.5-1.1-1.8-.2-1.8ZM67.3,42.2l-1,.5c-.3,0-1.9.6-2.2.6h0l-.3-.4,3.5-.7ZM64.3,41.4c0,.2-.7.6-1,.6s0,0,0,0l-.5-.7,1.5.2ZM63.3,39c0,0,.1,0,.2,0-.1.7-.7.9-1.3,1.1l-.5-.8c0-.1,1.1-.4,1.6-.4ZM62.5,36.7s0,0,0,0c-.4.6-.5,1.3-1.3,1.7-.1-.2-.4-.8-.3-1,.1-.2,1.2-.7,1.5-.7ZM61.1,35.2h0c.3,0,.2.2,0,.4-.1.1-.3.4-.4.5,0,0,0,.1,0,.1s0,0,0,0v-.9c0,0,.4-.1.5-.1ZM63.3,32.2c-.3-.3-.6-.5-.8-.9,0,0,0,0,0,0,.1,0,.9-.2,1.2-.2s0,0,0,0c0,.2-.4,1.1-.5,1.1ZM65.7,32.4s-.2-.6-.3-.7c-.1-.2-.4-.5-.4-.8h1.8c-.2.6-.5,1.2-1.1,1.5ZM68.3,33s0,0,0,0c0-.5-.3-.9-.2-1.4l1.3.7c0,.1-.7.7-1,.7ZM66.7,25.3c-.4,0-.8-.1-1.1-.3-.5-.2-.7-.8-1-1.2-.3-.4-.7-.8-1-1.3,1.6.4,3,1.3,4.4,2.2l1.6.7h-2.8ZM71.9,33.2c0,.1-.6.6-.9.6s0,0,0,0c0-.3,0-.7-.1-1l1.1.2c0,0,0,.1,0,.2ZM71.7,36.4l1.8-3.3h1c-.7,1.3-1.6,2.4-2.8,3.3ZM78.8,28.7s0,0-.1,0c-.7,0-1.2-.9-1.3-1.4h0s.4.2.5.3c.2.1,1.1.9.9,1.1Z"/>
      <path class="st0" d="M70.8,45.4h0Z"/>
      <g>
        <path class="st0" d="M83.7,24.7h-7.3c.2,0,.5.2.8.2.7.2,1.5.5,2.1.8,1.7.9,1.1,2.3.8,3h0s2.4,0,2.4,0c3.6.2,3.4,2.8,2.2,5.9-.9,2.2-2.3,4.5-4.6,5.5-1.9.8-3.8.4-5.6.5l2.9-7.9c-.3.3-.6.5-.9.7-.1,0-.3.1-.4.2,0,.1-.2.3-.2.4-.1.2-.3.5-.4.7-1.1,1.5-2.7,2.9-4.6,4.1l-2.1,5.8h0s8.3,0,8.3,0c3.8-.2,7.1-2,9.5-5.4,1.8-2.5,3.5-6.6,3.6-9.4,0-3.9-2.8-5.1-6.3-5.2ZM78.8,26.7c-.9-.5-2-.7-3.1-1.1l-4,10.9,1.8-3.3h1c-.7,1.3-1.6,2.4-2.8,3.3l-.3.9c1.2-.9,2.3-1.9,3.2-3.1.2-.3.6-1,.8-1.3.1-.1.3-.1.5-.2.8-.5,1.5-1.3,2-2.2-.9-.6-1.4-1.7-1.3-2.7l.2.9c0,.3,1,1.5,1.3,1.5h0c0,0,0,0,.1,0,0,0,.1-.2.2-.3l.4-1.1h.2c0-.1,0-.2.1-.3.4-.9.6-1.3-.3-1.8ZM78.8,28.7s0,0-.1,0c-.7,0-1.2-.9-1.3-1.4h0s.4.2.5.3c.2.1,1.1.9.9,1.1Z"/>
        <path class="st0" d="M203.8,25.8l-1.6,4.2c0,0,0,0,0,0-.2,0-.3-.2-.5-.3-2.6-1.4-7.2-1.6-9.9,1.1-1.9,1.8-3.6,6-3,8.1.5,1.9,3,2.2,4.9,1.8,0,0,.4,0,.4-.1l2-5.6h4.3s-3.2,8.7-3.2,8.7c-1.3.6-2.6.9-3.9,1h-1.5c-.4.1-.9.1-1.3.1-1.8,0-3.7-.5-4.9-1.7-2.2-2.1-1.5-5.7-.4-8.7,2.2-6.1,6.3-9.5,12.5-9.9h0s1.8,0,1.8,0h1.2c1.1.3,2.2.6,3.2,1.1Z"/>
        <polygon class="st0" points="237.4 24.9 237.4 24.9 235.8 28.9 230.8 29 225 44.8 220.7 44.8 226.6 28.9 221.6 28.9 223.1 24.8 237.4 24.9"/>
        <polygon class="st0" points="98 32.5 103.9 32.6 102.4 36.7 94.9 36.7 98 32.5"/>
        <polygon class="st0" points="107.3 24.8 105.8 28.8 97 28.8 95.6 32.5 97.2 32.5 94.1 36.7 94.1 36.7 92.6 40.7 101.5 40.7 100.1 44.7 86.9 44.7 94.3 24.7 107.2 24.7 107.3 24.8"/>
        <polygon class="st0" points="146.6 44.8 142.3 44.8 142.2 39.6 135.9 39.6 138.9 35.5 142.1 35.5 142 30.4 131.3 44.8 126.7 44.8 141.9 24.8 146 24.8 146.6 44.8"/>
        <polygon class="st0" points="157.6 28.8 156.3 32.6 164 32.6 162.6 36.8 154.7 36.8 151.7 44.8 147.6 44.8 154.9 24.8 167.4 24.8 165.9 28.8 157.6 28.8"/>
        <polygon class="st0" points="135 24.8 133.5 28.8 128.5 28.9 122.7 44.7 118.4 44.7 124.3 28.8 119.3 28.8 120.8 24.8 135 24.8"/>
        <polygon class="st0" points="114.7 40.7 113.2 44.7 102 44.7 109.5 24.7 113.7 24.8 107.8 40.7 114.7 40.7"/>
        <polygon class="st0" points="174.4 40.7 172.9 44.8 161.7 44.8 169.2 24.8 173.4 24.8 167.5 40.7 174.4 40.7"/>
        <polygon class="st0" points="180.4 30.1 186.3 25.7 179.2 44.8 175 44.8 180.4 30.1"/>
        <polygon class="st0" points="186.6 24.8 186.6 24.8 180.7 29.3 182.4 24.8 186.6 24.8"/>
        <polygon class="st0" points="211.7 32.7 208.7 36.7 206 36.7 203.1 44.8 198.8 44.8 206.2 24.8 210.4 24.8 207.6 32.7 211.7 32.7"/>
        <polygon class="st0" points="222.3 24.8 214.9 44.8 210.7 44.8 213.6 36.8 209.5 36.7 212.5 32.7 215.2 32.7 218.1 24.8 222.3 24.8"/>
      </g>
    </g>
  </g>
</svg>