<?xml version="1.0" encoding="UTF-8"?>
<svg xmlns="http://www.w3.org/2000/svg" version="1.1" xmlns:cc="http://creativecommons.org/ns#" xmlns:dc="http://purl.org/dc/elements/1.1/" xmlns:inkscape="http://www.inkscape.org/namespaces/inkscape" xmlns:rdf="http://www.w3.org/1999/02/22-rdf-syntax-ns#" xmlns:sodipodi="http://sodipodi.sourceforge.net/DTD/sodipodi-0.dtd" xmlns:svg="http://www.w3.org/2000/svg" viewBox="0 0 239.9 62.3">
  <!-- Generator: Adobe Illustrator 29.0.1, SVG Export Plug-In . SVG Version: 2.1.0 Build 192)  -->
  <defs>
    <style>
      .st0 {
        fill: #fff;
      }

      .st1 {
        fill: #fb0;
      }

      .st2 {
        fill: #005bc4;
      }

      .st3 {
        display: none;
      }
    </style>
  </defs>
  <g id="Camada_2" class="st3">
    <polygon class="st0" points="116.5 192.1 114.8 192.1 113.9 193.3 117.9 193.3 117.7 187.9 116.2 187.9 111.3 193.3 112.6 193.3 116.5 188.8 116.5 192.1"/>
  </g>
  <g id="svg4057" class="st3" inkscape:version="0.91 r13725">
    <sodipodi:namedview id="base" bordercolor="#666666" borderlayer="false" borderopacity="1.0" fit-margin-bottom="0" fit-margin-left="0" fit-margin-right="0" fit-margin-top="0" inkscape:current-layer="layer1" inkscape:cx="271.31351" inkscape:cy="-40.407035" inkscape:document-units="px" inkscape:pageopacity="0.0" inkscape:pageshadow="2" inkscape:showpageshadow="false" inkscape:window-height="666" inkscape:window-maximized="0" inkscape:window-width="1011" inkscape:window-x="2360" inkscape:window-y="241" inkscape:zoom="1.4" pagecolor="#ffffff" showborder="true" showgrid="true" showguides="false">
      <inkscape:grid id="grid4093" originx="-10.04131" originy="-961.96023" type="xygrid"/>
    </sodipodi:namedview>
    <g>
      <g>
        <path class="st1" d="M77.2,22.5h9.7c4.7,0,4.7,2.6,4.1,4.4s-1.8,2.8-3.4,3.5c1.4.5,2.4,1.8,1.5,4.4-1.3,3.6-5,5.4-8.1,5.4h-10.1l6.3-17.7ZM77.9,36h3.2c1.1,0,2.3-.3,2.7-1.7.4-1,0-1.6-1.3-1.6h-3.4l-1.2,3.3ZM80.2,29.4h2.9c1.1,0,2-.3,2.4-1.5.3-.9-.3-1.2-1.4-1.2h-2.9l-1,2.7Z"/>
        <path class="st1" d="M95.9,22.5h14.7l-1.6,4.5h-9.3l-.8,2.2h8.4l-1.5,4.2h-8.4l-.7,2.2h9.5l-1.6,4.5h-15l6.3-17.6Z"/>
        <path class="st1" d="M115.7,27h-5l1.6-4.5h15.4l-1.6,4.5h-5l-4.7,13.2h-5.5l4.8-13.2Z"/>
        <path class="st1" d="M132.8,22.5h5.3l.2,17.7h-5.6l.2-2.5h-5.6l-1.7,2.5h-5.5l12.7-17.7ZM133.1,33.9l.3-5.5h0l-3.7,5.5h3.4Z"/>
        <path class="st0" d="M146.1,22.5h13.7l-1.6,4.5h-8.2l-.8,2.2h7.1l-1.5,4.2h-7.1l-2.4,6.8h-5.5l6.3-17.7Z"/>
        <path class="st0" d="M161.9,22.5h5.5l-4.7,13.1h7.9l-1.6,4.5h-13.3l6.2-17.6Z"/>
        <path class="st0" d="M177.2,22.5h5.5l-6.3,17.7h-5.5l6.3-17.7Z"/>
        <path class="st0" d="M193,38.4c-1.8,1.6-3.9,2.2-5.8,2.2-5.2,0-7-4.1-5.2-9.1,2.4-6.8,8.1-9.5,12.1-9.5s6.5,2.5,5.8,6.6h-5.2c.3-1.3-.5-2.2-1.8-2.2-3.8,0-5,4-5.5,5.2-.6,1.7-.9,4.6,2.4,4.6s2.8-.6,3.5-2h-2.4l1.3-3.8h7.3l-3.5,9.8h-3.5l.5-1.8Z"/>
        <path class="st0" d="M205.3,22.5h5.5l-2.2,6.2h5.1l2.2-6.2h5.5l-6.3,17.7h-5.5l2.5-7h-5.1l-2.5,7h-5.5l6.3-17.7Z"/>
        <path class="st0" d="M226.6,27h-5l1.6-4.5h15.4l-1.6,4.5h-5l-4.7,13.2h-5.5l4.8-13.2Z"/>
      </g>
      <path class="st1" d="M51.5,44.6c-4.8-2-8.3-5-11.7-6.3,1.8-.8,3.5-1.9,4.5-2.9,1.1-1.1,1.5-2.4,1.4-3.7,3.6,2.4,7.8,2.6,10,2.7,2.2,0,4.4.6,4.8,1.6,0,0,.7-12.2-24.4-20.3,0,0,7.5,3.4,9.8,6.1,0,0-2.7-.2-3.8,1.6-.6.9-.7,2.2-.2,3.7-.4,0-.9,0-1.4-.2L.7,4.8l4.2,9-3.9-1.4,1.2,2.2s1.7,3.2,5.5,9.9c3,5.3,8.4,7.9,15.6,7.6h.9c1.8,0,4.6-.4,7.3-.6-.2,1-.2,2.2.1,3.6.3,1.6,1,2.7,1.8,3.3-2.1,1-4.1,3-4.9,5.3h0c-.6,1.5-.8,3.2,0,5.3h0c0,.4.3.8.6,1.3.2.4.5.8.9,1.2,4.4,5.3,15.2,4.4,22,1.6.1,0,.2,0,.3,0,.5-.2,1.1-.5,1.6-.7,0,0,.2,0,.3-.2.6-.3,1.1-.6,1.7-.9,6.7-3.9,9-8.5,9-8.5,0,0-6.9,4.6-13.4,1.9ZM53.2,26.5c1.9.8,4.8,5.6,4.8,5.6-2.4-.4-7.3-2-7.8-3.8s1.1-2.6,3-1.8ZM46.9,50.1s.5,1.6-.1,3.7c-.7.2-1.4.3-2.1.5,1.2-.9,2.2-2.3,2.2-4.2ZM14,19.6l17.3,9.8c-3.2.3-6.5.6-8.2.7-2.6,0-4.9-.2-6.9-.9-3-1-5.2-3-6.8-5.7-2-3.4-3.3-5.9-4.2-7.5l3.6,1.2-3.6-7.7,31.5,17.4c-.9,0-1.7.4-2.5.7l-20.2-8ZM32.4,31.9c1.2-5.8,8.7-4,8.7-4-2.7,0-4.3.7-5.1,1.8-1.2,1.6.3,2.9.3,2.9-.4,0-.8-.2-1-.4h0c.6,2.4,2.5,3,2.5,3-.7,0-1.3,0-1.8,0,.4.9,1,1.6,1.3,1.8-1.7,0-2.5.4-3.1.6-1.3-.9-2.4-3.1-1.8-5.6ZM37.5,44.7s-2.7,3.4-8.6,3.4c-.3-1.3-.2-2.6,0-3.8,1.9,1.2,4.7,1.8,8.5.4ZM32.6,52.6c2.5-.6,5.7-2,8.7-5.4,0,0-.4,3.8-3.2,7.3-1.3-.2-2.6-.5-3.8-1-.6-.3-1.2-.6-1.7-.9ZM56.2,49.5c-.3-.9-.5-2.8-.5-2.8,2.1.2,4.6-.7,4.6-.7-1.7,2.2-4.1,3.5-4.1,3.5Z"/>
    </g>
  </g>
  <g id="Camada_3" class="st3">
    <g>
      <path d="M91.1,26.8c0-3.9-2.8-5.2-6.3-5.3h-7.7s-7.5,20.2-7.5,20.2h0s8.3,0,8.3,0c3.8-.2,7.2-2,9.6-5.4,1.8-2.5,3.6-6.7,3.6-9.5ZM85.7,31.6c-.9,2.2-2.3,4.6-4.7,5.5-1.9.8-3.8.4-5.7.5l4.4-12h3.7c3.6.2,3.5,2.8,2.2,5.9Z"/>
      <path d="M206.1,22.6l-1.6,4.3c0,0,0,0,0,0-.2,0-.3-.2-.5-.3-2.7-1.4-7.3-1.6-10.1,1.1-1.9,1.8-3.6,6-3,8.2.5,1.9,3.1,2.2,5,1.8,0,0,.4,0,.4-.1l2.1-5.6h4.3s-3.3,8.8-3.3,8.8c-1.3.6-2.7.9-4,1.1h-1.5c-.4.1-.9.1-1.3.1-1.8,0-3.8-.5-5-1.7-2.2-2.1-1.6-5.7-.4-8.8,2.2-6.1,6.4-9.7,12.6-10h0s1.8,0,1.8,0h1.2c1.2.3,2.2.6,3.2,1.1Z"/>
      <polygon points="240.1 21.7 240.1 21.7 238.6 25.8 233.5 25.8 227.6 41.9 223.3 41.9 229.2 25.8 224.2 25.8 225.7 21.6 240.1 21.7"/>
      <polygon points="99.2 29.4 105.2 29.4 103.7 33.7 96.1 33.7 99.2 29.4"/>
      <polygon points="108.5 21.6 107 25.6 98.2 25.6 96.8 29.4 98.3 29.4 95.2 33.7 95.2 33.7 93.7 37.7 102.8 37.7 101.3 41.8 88 41.7 95.4 21.5 108.5 21.6 108.5 21.6"/>
      <polygon points="148.3 41.8 143.9 41.8 143.8 36.6 137.5 36.6 140.6 32.4 143.8 32.5 143.7 27.2 132.8 41.8 128.2 41.8 143.6 21.6 147.7 21.6 148.3 41.8"/>
      <polygon points="159.5 25.7 158.1 29.5 166 29.5 164.4 33.7 156.5 33.7 153.5 41.8 149.3 41.8 156.7 21.6 169.3 21.6 167.8 25.7 159.5 25.7"/>
      <polygon points="136.6 21.6 135.1 25.7 130 25.7 124.1 41.8 119.8 41.8 125.8 25.7 120.7 25.7 122.3 21.6 136.6 21.6"/>
      <polygon points="116.1 37.7 114.5 41.8 103.2 41.8 110.8 21.6 115 21.6 109 37.7 116.1 37.7"/>
      <polygon points="176.4 37.7 174.9 41.8 163.6 41.8 171.1 21.6 175.4 21.6 169.5 37.7 176.4 37.7"/>
      <polygon points="182.5 27 188.4 22.5 181.3 41.8 177 41.8 182.5 27"/>
      <polygon points="188.8 21.6 188.8 21.6 182.8 26.1 184.5 21.6 188.8 21.6"/>
      <polygon points="214.2 29.6 211.1 33.7 208.4 33.7 205.4 41.8 201.1 41.8 208.6 21.6 212.8 21.6 210 29.6 214.2 29.6"/>
      <polygon points="224.8 21.6 217.3 41.8 213.1 41.8 216.1 33.7 211.9 33.7 215 29.6 217.6 29.6 220.6 21.6 224.8 21.6"/>
    </g>
  </g>
  <g id="Camada_5" class="st3">
    <g>
      <path d="M62.1,42.5c-.2,0-.4,0-.6,0-.4,0-.6-.3-.6-.4v-.2c-.4,0-.8,0-1.2,0h-.5s0-.8,0-.8c-.1,0-.3,0-.4,0h-.4v-.4c-.1-.1-.2-.5.2-.7,0,0,0,0-.1,0-.3,0-.5,0-.7-.2-.2-.1-.3-.3-.4-.6v-.5c-.6,0-1.1,0-1.7-.2l-1.6-.2,1.2-.6c0,0-.1,0-.2,0-.1,0-.3,0-.4,0-2,.1-3.6,1-5.3,1.9-1.4.8-2.9,1.6-4.8,1.9-.5,0-1.1.1-1.8.1s-2.6,0-3.6-.7c-.4-.2-.4-.5-.3-.7v-.3c-2.6-.3-5-1.5-6.6-3.3-.7-.8-.9-1.2-.6-1.6l.2-.3h.3c1.1.6,2.3.8,3.5.9-2.5-.5-4.6-1.7-6.9-3.1-.6-.4-1.3-.8-2-1.2h-.1c-.7-.5-1-.6-1.1-.7l-.4-.2c-2.3-.9-4.2-1.2-6.1-1.2s-1.2,0-1.8.1h0s-2.1-.1-2.1-.1l1.3-.8c2.3-1.5,5.1-2.3,8.3-2.3-1.1-.1-2.2-.2-3.3-.2-3.1,0-6.1.6-8.9,1.8l-3.2,1.6.6-1.3c.3-.7.8-1.3,1.1-1.7,1.5-2,3.5-3.7,6-5.1-.5.2-.9.5-1.4.7l-.3.2-.3-.3c-.2-.2-.4-.5,1.1-2.3,1.3-1.6,3.1-2.8,4.1-3.4,1-.6,2.1-1.2,3.3-1.7-.4,0-.8.1-1.2.2h-.3c0,0-.3-.4-.3-.4v-.3c0-.3.3-.5.5-.5,1.7-1.2,3.8-2,5-2.4,2.4-.8,4.9-1.2,7.4-1.2s.2,0,.3,0c-.1,0-.2,0-.3,0-.4,0-.5-.4-.6-.5v-.4c0,0,.4-.1.4-.1,1.3-.4,2.7-.5,4.1-.5s2,0,3,.3v-.2c.3-.2.4-.3.7-.3h.1c1.2.1,2.8.6,4.1.9h.3c.7.3,1.3.4,1.9.6,2.6.7,5,1.4,7.8,1.5.2,0,.3,0,.5,0,.3,0,.7,0,1,0,.3,0,.7,0,1,0,.6,0,1.4,0,2.2.3,1.3.4,2.5,1,3.7,1.6.3.2.6.3.9.4l.8.4c2.3,1.1,5.1,2.4,6.5,4.5.2.3.3.5.5.8.7,1.1,1,1.7,2.5,2.5.6.3,1.4.6,2.1.8.7.2,1.4.4,2.1.8,1.3.7.9,1.6.6,2.4h0c-.2.7-.7,1.4-1,1.9,0,0-.1.2-.2.2h0c-.5,1-1.3,1.8-2.2,2.4-.1,0-.2.1-.3.2,0,0,0,0-.1,0,0,0-.2.4-.3.6-.1.2-.3.5-.4.7-1.2,1.6-2.9,3.1-5,4.3l-.6.3-.2-1v-.2c.9-1.1,1.4-2.1,1.9-3.1-.3.1-.6.2-1,.2h-.6s0-.6,0-.6c0-.5,0-.9,0-1.2,0,0-.1.1-.2.2-.7.5-1.4.8-2.1.8h-.6v-.6c0-.2,0-.5-.1-.7-.2.3-.5.5-.9.6-.4.1-.6.2-.8.2-.4,0-.7-.3-.7-.8,0-.1,0-.3,0-.5,0,0,0,0,0-.1-.1.3-.3.5-.5.8l-.3.3-.4-.2c-.6-.3-1.3-.7-1.8-1.3-.2,0-.4.1-.6.2v1.7c.2,0,.2,0,.3,0,.7,0,1.2.3,1.6.5l.5.3-.7,1c.5,0,1,.2,1.4.4l.4.3-1.2,1.6c.6,0,1.1.2,1.5.4l.5.2-1,1.7h0s0,0,.1,0c0,0,.2,0,.3.1,0,0,.1,0,.2,0,.5,0,1,.1,1,.6v.2l-.3.4c1.2-.2,2.5-.4,3.8-.8h.5c0-.1.1.4.1.4,0,.4-.2.6-.2.7-.3.3-.8.7-1.1.8-1,.6-2.2,1.1-3.6,1.5-.1.5-.5.7-.7.8-.7.3-2.1.5-2.8.5ZM62.3,34.6s0,0,0,0c0,0,0,0,0,0,0,0,0,0,0,0ZM50.2,21.7v.2c-2.7,3-2.4,6.9-1.7,9.5v-.2c.4-1,.8-2,1.4-2.8,0-.3.3-.4.5-.4h.2s.5.1.5.1v.5c-.3.9-.3,1.8-.2,2.6,0-.5.2-1,.3-1.6.5-1.7,1.4-3.4,2.7-4.9h-.3s-.2-.2-.2-.2c-.1-.1-.1-.3,0-.5,0-.1.1-.3.3-.6h0c1.4-2.3,3.6-4.1,6.1-5v-.4c-.1-.2-.1-.5.2-.7.2-.1.9-.4,1-.4.6-.2,1.2-.3,1.9-.3l-.9-.7,1.1-.2c.2,0,.5,0,.7,0,.8,0,1.6.2,2.3.5,1.1.5,1.9,1.4,2.6,2.2.6.6,1.1,1.2,1.8,1.6-.1-.3-.3-.5-.4-.8-1-1.7-4-3.1-6-4.1h-.3c-2.8-1.5-3.9-1.8-4.3-1.8h-.3c-.4,0-.8,0-1.2,0-.4,0-.8,0-1.2,0-.8,0-1.8,0-2.8-.2-.1,0-.2,0-.3,0,.9.5,1.8,1.2,2.4,1.9.2.2.6.7.7.9,0,0,.1.4,0,.6v.2c-.1,0-.4,0-.4,0l.4.7-.7.2c-2.5.6-4.7,1.8-6.3,3.5v.7ZM66.7,28.4s0,0,0,0c0,0,0-.1.1-.2h-.2s0,0,0,0ZM65.8,20.4c0,.1.2.2.2.4.2.3.3.6.5.6.2,0,.4.1.6.2.1,0,.3,0,.4,0h.4c0,0-.1,0-.2-.1-.7-.4-1.3-.8-2-1.1ZM45.4,18.7c-.1.2-.2.4-.2.6,0,0,0,0,0,.1,0-.3,0-.5.2-.7ZM49.5,17.8c-.1.4-.2.8-.2,1,0,0,.2-.4.2-.5,0-.3,0-.5,0-.7,0,0,0,.1,0,.2ZM46.2,16.8c0,.2,0,.5,0,.7,0-.1,0-.2,0-.3,0-.1,0-.2,0-.4ZM50.5,16.8s0,0,0-.1c0,0,0-.1-.1-.2,0-.1-.2-.2-.2-.4l-.3-.8h.8c.6.2,1.1.5,1.5,1,0-.3,0-.6-.1-.7-.3-.3-2.1-.8-2.9-.8,0,.2.2.4.2.6.1.3.2.5.3.7,0,.1,0,.2,0,.4l.8.4ZM47.7,11.5c0,.2,0,.3,0,.4.3-.1.7-.2,1.1-.2-.4-.1-.7-.2-1.1-.4v.2Z"/>
      <path class="st0" d="M42,8.6s0,0,.1,0c1.3.1,3,.6,4.3,1,3.4.9,6.3,1.9,9.9,2.1.2,0,.3,0,.5,0,.7,0,1.4,0,2,0s1.4,0,2.1.2c1.6.4,3.1,1.3,4.5,2,2.3,1.1,5.7,2.5,7.1,4.7,1.1,1.7,1.3,2.4,3.1,3.4,1.3.7,2.9.9,4.1,1.6,1,.5.7,1,.3,1.9-.2.6-.6,1.2-1,1.7,0,0,0,.1-.1.1s0,0,0,0c-.2,0-1.3-1.2-1.3-1.6l-.2-1c0,1.1.4,2.2,1.3,2.8-.5.8-1.2,1.6-2,2.2-.1,0-.4.1-.5.2-.2.2-.6,1-.8,1.3-1.3,1.7-3,3.1-4.9,4.2v-.2c1-1.5,1.9-3.1,2.6-4.8-.6.6-1.3,1.1-2.1,1.1,0-.5.1-1.4-.2-1.9,0,0-.1-.1-.2-.1-.2,0-.4.3-.6.5-.5.4-1.1.7-1.8.7s0,0,0,0c.1-.7-.4-1.3-.4-2-.4.6-.6,1.1-1.3,1.4-.3.1-.5.2-.6.2-.3,0-.1-.4-.3-1-.1-.3-.5-.7-.6-1.1-.2.6-.4,1.2-.8,1.6-.7-.4-1.4-.7-1.8-1.4-1,.3-2,.7-3,1.1,0,0,0,0,.1,0s.1,0,.1,0c.3,0,.7-.1,1-.1.1,0,.2,0,.3,0v2c.3,0,.5-.1.8-.1.5,0,1,.2,1.4.4l-1.1,1.5c.4-.1.7-.2,1.1-.2.4,0,.8,0,1.2.4l-1.5,2.1c.3,0,.5,0,.8,0,.5,0,1.1,0,1.5.3l-.7,1.1-1,.6c.3,0,.6,0,.8.1.3,0,.6.2.8.3.2,0,.9,0,.9.2l-.5.7-.9.6c1.8-.1,3.7-.5,5.4-.9,0,.1,0,.2-.1.2-.2.2-.7.6-1,.8-1.2.7-2.5,1.2-3.8,1.5,0,.4-.1.6-.5.8-.5.3-1.8.4-2.6.4s-.4,0-.5,0c0,0-.3,0-.2-.2l1.1-.6c-.6,0-1.1.1-1.7.1s-.7,0-1.1,0v-.2c.3,0,.5-.2.8-.4,0,0,.6-.5.5-.6-.7.2-1.5.4-2.2.4s0,0,0,0c0-.1,0-.1.2-.2.5-.3,1-.5,1.3-1l-1.6.2s0,0-.2,0,0,0,0,0c-.1,0-.3,0-.4-.1-.1,0-.2-.2-.2-.3,0,0,.1,0,.2,0,.2,0,.3-.2.4-.2h.2c0-.2,0-.2.1-.3,0-.1.2-.4.2-.4,0,0-.5,0-.6,0-.2,0-.5,0-.9,0s-1,0-1.8-.2l.9-.4.4-.3c-.7,0-1.3,0-2,0s-.3,0-.4,0c-4,.2-6.3,3.1-10.1,3.8-.5,0-1.1.1-1.7.1-1.2,0-2.6-.2-3.3-.6,0,0-.1,0-.1-.2,1.7,0,3.6-.5,4.9-1.6-1.2.5-2.5.7-3.8.7-2.9,0-6-1.1-7.8-3.2-.1-.1-.7-.8-.6-.9,1.4.6,3,.8,4.5.8s3.1-.3,4.5-.8c0,0,.3,0,.3-.2,0,0,0,0,0,0-.2,0-.4,0-.5.1-.8.1-1.6.2-2.3.2-4.6,0-7.3-2.1-11.5-4.5-.2,0-1.2-.7-1.2-.7l-.5-.2c-2.1-.8-4.2-1.3-6.3-1.3s-1.3,0-1.9.1h-.5c2.5-1.7,5.5-2.3,8.5-2.3,1.9,0,3.7.2,5.5.6l-2.8-1c-2.1-.6-4.2-.8-6.3-.8-3.1,0-6.2.6-9.1,1.8l-1.9,1c.3-.6.6-1.1,1-1.6,2.7-3.7,7.1-6,11.4-7.4,0,0,0,0,0,0s-.1,0-.1,0c-2.5.3-5,1.1-7.2,2.3,0-.1.9-1.4,1.1-1.6,1-1.3,2.6-2.4,4-3.2,2.6-1.5,5.4-2.5,8.4-3.2,0,0,0,0,0,0s-.1,0-.1,0c-.3,0-.6,0-.9,0-.7,0-1.5.2-2.2.3-1.1.1-2.2.3-3.3.5-.1-.1.2-.3.3-.3,1.4-1,3.2-1.8,4.8-2.3,2.4-.8,4.8-1.2,7.2-1.2,1.8,0,3.6.2,5.4.6-.1-.1-.4-.2-.6-.3-1.6-.7-3-.9-4.7-1.4,0,0-.2,0-.2-.1,1.3-.4,2.6-.5,3.9-.5,3.2,0,6.3,1,8.9,2.8,0,.1-.4.3-.5.4-.3.2-.8.8-1,1.1-.8,1.4.3,3-.1,4.4-.2.7-.9,1.1-.8,1.9.1,1.1,1.4,1.3,2.3,1.4l-.7-.4c-1.4-1.1.3-2,.4-3.2.1-1.3-.8-2.9,0-4,.6-.8,1.5-1,2.4-1,.6,0,1.3.1,1.9.2,1.8.4,3.8,1.5,5,2.9.1.1.5.6.6.7,0,0,0,.1,0,.1s0,0,0,0c-.5-.2-1-.3-1.5-.3s-.8,0-1.1.1l2.2.8v.2c-2.8.7-5.5,2.2-7.3,4.6l.8-.2h0c-2.8,3.4-2.6,7.9-1.2,11.7l.5-1.9c.4-.9.7-1.9,1.3-2.8,0,0,0-.1,0-.1,0,0,0,0,0,0-.4,1.8,0,3.5.4,5.2l.4,1c0-1.7,0-3.3.4-4.9.7-2.5,2.3-4.7,4.2-6.3,0,0,0,0,0,0-.4,0-.9.2-1.3.4-.2,0-.5.4-.6.4,0,0,0,0,0,0,0,0,0,0,0-.1,0-.1.3-.5.4-.6,1.8-2.9,5.1-4.9,8.4-5.2,0-.2,0-.1-.1-.1-.3,0-.6,0-.9-.1,0,0-.2-.1-.2-.1h-1.1c0-.1,0-.1.1-.2,0,0,.7-.3.8-.3.7-.2,1.5-.3,2.2-.3.4,0,.9,0,1.3,0-.3-.5-1-.6-1.4-.9.2,0,.4,0,.7,0,.7,0,1.5.2,2.1.4,2.2,1,3.1,3.8,5.6,4.3-.3-.7-.6-1.4-1-2-1.1-1.9-4.4-3.4-6.4-4.4-1-.5-3.5-1.7-4.5-1.7,0,0-.2,0-.3,0-.8,0-1.6,0-2.3,0s-1.8,0-2.7-.2c-4.4-.6-8.4-2.6-12.5-3.9,0,0,.1,0,.2,0M49.3,19.2c0,0,.2,0,.3,0,.1,0,.4-.5.5-.7.2-.5,0-.9-.1-1.4l.7.3.5.7c0-.5,0-1.1-.1-1.6,0-.2-.3-.4-.3-.6.5,0,1.1.4,1.4.9.1.2.1.4.2.6,0,0,0,0,0,0s0,0,0,0c.3-.6.7-1.8,0-2.3-.5-.4-2.6-1-3.3-1,0,0,0,0,0,0-1,0,.1,1.4.2,1.9.1,1-.6,2.1-.4,2.8,0,.2.2.3.4.3M70.4,22.3l-1.6-.7c-1.4-.8-2.8-1.8-4.5-2.2.3.4.7.8,1,1.3.3.4.5,1,1,1.2.4.1.8.2,1.1.3h2.9M79.7,25.6s0,0,.1,0c.2-.2-.8-1-1-1.2,0,0-.4-.3-.5-.3,0,0,0,0,0,0,.1.6.7,1.5,1.3,1.5M66.6,29.3c.6-.3.9-.9,1.1-1.5h-1.8c0,.3.3.5.4.8,0,.1.2.7.3.7M64.1,29.1c.1,0,.5-1,.5-1.1,0,0,0,0,0,0-.3,0-1,.1-1.2.2,0,0-.1,0,0,.1.1.4.5.6.8.9,0,0,0,0,0,0M69.1,29.9c.3,0,1-.6,1-.7l-1.3-.7c-.1.5.3.9.3,1.4,0,0,0,0,0,0M71.9,30.7c.2,0,.8-.5.9-.6,0,0,.1,0,0-.2l-1.1-.2c.1.3.2.7.1,1,0,0,0,0,0,0M72.6,33.4c1.1-.9,2.1-2.1,2.8-3.3h-1l-1.8,3.3M61.4,33.1c0,0,0,0,0-.1.1-.1.3-.3.4-.5.2-.3.3-.4,0-.4,0,0,0,0,0,0,0,0-.6,0-.6.1v.9c.1,0,.1,0,.2,0M62.1,35.4c.7-.3.9-1.1,1.3-1.7,0,0,0,0,0,0-.3,0-1.4.5-1.5.7-.2.2.2.8.3,1M63,37.1c.6-.2,1.2-.4,1.3-1.1,0,0,0,0-.2,0-.5,0-1.6.2-1.6.4l.5.8M64.1,38.9c.2,0,.9-.4,1-.6l-1.5-.2.5.7s0,0,0,0M65,40.4c.3,0,2-.5,2.2-.6l1-.5-3.5.7.3.4s0,0,0,0M42,7.6c-.3,0-.5.1-.5.1-.2,0-.3.2-.4.3-.9-.2-1.9-.2-2.8-.2-1.4,0-2.8.2-4.2.6l-.9.2.2.9s0,0,0,0c-2.2,0-4.4.5-6.5,1.2-1.2.4-3.4,1.2-5.1,2.4-.2.1-.6.4-.7.9,0,.3,0,.6.2.9h0c-.5.3-1,.6-1.5.9-1,.6-2.9,1.8-4.2,3.5-1.4,1.6-1.6,2.3-1.1,2.9-1.6,1.2-2.9,2.5-4,3.9-.3.4-.8,1.1-1.1,1.8l-1.2,2.6,2.5-1.3,1.9-.9c2-.8,4.2-1.4,6.5-1.6-1.1.4-2.2.9-3.2,1.5l-2.6,1.6,3,.2h.5s.1,0,.1,0h.1c.6,0,1.2-.1,1.8-.1,1.8,0,3.7.4,6,1.2l.4.2c.2.1.5.3,1.1.6h.1c.7.5,1.4.9,2,1.2,1,.6,1.9,1.1,2.8,1.6h0c-.7.9.1,1.8.6,2.3,1.6,1.7,3.9,2.9,6.5,3.3,0,.3,0,.7.6,1,1.1.7,2.9.8,3.8.8s1.4,0,1.9-.1c1.9-.3,3.5-1.2,4.9-2,1-.5,2-1.1,3.1-1.4l2.9.4c.5,0,.9.1,1.3.1h0c0,.5.3.8.5,1,.1,0,.3.2.4.2,0,.1,0,.3,0,.4l.2.8h.8s0,.7,0,.7h.9c.3.1.5.1.8.1.1.2.4.6,1,.6.2,0,.4,0,.6,0,.7,0,2.2-.1,3-.5.4-.2.7-.5.9-.9,1.1-.3,3-.8,3.5-1.5,0,0,.2-.3.4-.6.5-.6.5-.7.6-.9.2-.3.2-.7.3-1,0-.2,0-.5,0-.6l-1,.3c-1,.3-1.9.5-2.9.6,0-.9-.9-1-1.4-1.1l.4-.7.5-.9-.9-.5c-.3-.1-.6-.3-.9-.3l.4-.5.6-.8-.8-.6c-.3-.2-.5-.3-.8-.4l.5-.7-1-.5c-.5-.3-1.1-.5-1.6-.5v-.7c.4.5,1,.8,1.6,1.1l.7.4.5-.5c.3.6.9.7,1.1.7s.5,0,1-.2c.1,0,.2,0,.3-.2v.8c-.1,0,1,0,1,0h0c.6,0,1.2-.2,1.8-.5,0,0,0,.1,0,.2l-.2,1.2h1.2s0,0,0,0c-.4.7-.8,1.4-1.3,2.1l-.2.4v.4c0,0,.1.2.1.2l.3,1.3,1.2-.7c2.2-1.3,3.9-2.8,5.2-4.4.1-.2.3-.5.4-.7,0-.1.2-.3.2-.4.1,0,.2,0,.4-.2.9-.6,1.8-1.5,2.3-2.5,0,0,.2-.2.3-.3.4-.5.8-1.3,1.1-1.9h0c.3-.8.9-2.2-.8-3.1-.7-.4-1.4-.6-2.2-.8-.7-.2-1.4-.4-2-.7-1.3-.7-1.6-1.2-2.3-2.3-.1-.2-.3-.5-.5-.8-1.4-2.2-4.3-3.6-6.7-4.7-.3-.1-.5-.3-.8-.4-.3-.1-.6-.3-.9-.4-1.2-.6-2.5-1.2-3.8-1.6-.9-.2-1.7-.3-2.4-.3s-.7,0-1.1,0c-.3,0-.7,0-1,0s-.3,0-.5,0c-2.8-.1-5.2-.8-7.7-1.5-.6-.2-1.3-.4-1.9-.5h-.3c-2.3-.7-4-1-4.4-1ZM57.3,16.8h0c.2-.4.2-.8.1-1.2,0,0-.1-.3-.8-1-.3-.3-.6-.6-.9-.9.5,0,.9,0,1.3,0s.8,0,1.2,0c.4,0,.8,0,1.2,0h.3c.2,0,.9.1,3.6,1.4,0,0-.2,0-.2,0l-2.3.3.8.7c-.3,0-.5.1-.8.2,0,0-.8.3-1.1.4-.4.3-.6.7-.6,1.2-2.4,1-4.6,2.7-6,4.9h0c-.2.4-.3.6-.4.8,0,.3,0,.7.2,1h0c-.7.9-1.2,1.9-1.7,2.8l-.7-.2c0,0-.2,0-.3,0-.5,0-.8.3-1,.7-.3.5-.5,1-.8,1.5-.3-2.3-.1-5.1,1.8-7.3l.3-.3v-.4c0,0,0-.1,0-.1h0c1.5-1.6,3.6-2.7,5.9-3.3l1.3-.3-.5-.8h0Z"/>
    </g>
    <path class="st0" d="M71.7,42.5"/>
  </g>
  <g id="Camada_6">
    <g>
      <path class="st2" d="M78.8,26.5c-.9-.5-2-.7-3.1-1.1-.4-.1-.7-.3-1-.4-1.9-1-2.1-1.7-3.1-3.4-1.4-2.2-4.7-3.6-7-4.7-1.4-.7-2.9-1.5-4.5-2-.7-.2-1.4-.2-2.1-.2s-1.4,0-2,0-.3,0-.5,0c-3.6-.1-6.4-1.1-9.8-2-1.3-.3-3-.8-4.2-.9,0,0,0,0,0,0,0,0-.1,0-.2,0,4.2,1.3,8.1,3.3,12.4,3.9.9.1,1.8.2,2.7.2s1.5,0,2.3,0h.3c.9,0,3.5,1.2,4.4,1.7,2,1,5.2,2.5,6.4,4.4.4.6.6,1.3,1,2-2.5-.6-3.3-3.3-5.5-4.3-.6-.3-1.4-.4-2.1-.4s-.4,0-.7,0c.4.3,1,.5,1.4.9-.4,0-.8,0-1.2,0-.7,0-1.5,0-2.2.3-.1,0-.7.2-.8.3,0,0-.1,0-.1.2h1.1s.1.1.2.1c.3,0,.6,0,.9.1.1,0,.2,0,.1.1-3.3.3-6.6,2.4-8.3,5.2,0,.1-.3.5-.3.6,0,0,0,.1,0,.1s0,0,0,0c.1,0,.4-.3.6-.4.4-.2.9-.4,1.3-.4h0c-1.9,1.6-3.5,3.8-4.2,6.2-.5,1.6-.5,3.2-.4,4.8l-.4-1c-.4-1.7-.8-3.4-.4-5.1,0,0,0,0,0,0,0,0,0,0,0,.1-.5.8-.9,1.8-1.3,2.7l-.5,1.9c-1.4-3.8-1.6-8.3,1.2-11.5h0c0-.1-.8,0-.8,0,1.8-2.3,4.5-3.8,7.4-4.5v-.2c-.1,0-2.3-.8-2.3-.8.4,0,.7-.1,1.1-.1s1,0,1.5.3c0,0,0,0,0-.1,0,0-.5-.6-.6-.7-1.2-1.4-3.2-2.4-5-2.8-.6-.1-1.2-.2-1.8-.2-.9,0-1.8.2-2.4,1-.8,1.1,0,2.7,0,4-.1,1.2-1.8,2.1-.4,3.2l.7.4c-.9,0-2.1-.3-2.2-1.4,0-.8.6-1.2.8-1.9.4-1.4-.7-3,.1-4.4.2-.3.7-.8,1-1,.1,0,.6-.3.5-.4-2.6-1.8-5.7-2.8-8.8-2.8s-2.6.2-3.9.5c0,.1.1.1.2.1,1.6.4,3,.7,4.6,1.4.2,0,.4.2.6.3-1.8-.4-3.6-.6-5.3-.6s-4.8.4-7.2,1.2c-1.6.5-3.4,1.3-4.8,2.3,0,0-.4.2-.2.3,1.1-.2,2.2-.4,3.3-.5.7,0,1.4-.2,2.1-.3.3,0,.6,0,.9,0,0,0,0,0,.1,0s0,0,0,0c-2.9.6-5.7,1.6-8.3,3.1-1.4.8-2.9,2-3.9,3.2-.1.2-1.2,1.5-1.1,1.6,2.2-1.3,4.6-2,7.1-2.3,0,0,0,0,.1,0s0,0,0,0c-4.2,1.4-8.5,3.7-11.2,7.3-.4.5-.7,1-1,1.6l1.9-.9c2.8-1.2,5.9-1.8,9-1.8s4.2.3,6.3.8l2.8,1c-1.8-.4-3.6-.6-5.4-.6-2.9,0-5.9.6-8.4,2.2h.5c.6,0,1.3-.1,1.9-.1,2.1,0,4.2.5,6.3,1.3l.5.2s1.1.6,1.2.7c4.2,2.3,6.9,4.4,11.4,4.4s1.5,0,2.3-.2c.2,0,.3-.1.5-.1,0,0-.2.1-.3.2-1.4.5-2.9.8-4.5.8s-3-.3-4.4-.8c0,0,.5.8.6.9,1.8,2,4.9,3.2,7.7,3.2s2.6-.2,3.8-.7c-1.4,1.1-3.2,1.5-4.9,1.6,0,.1,0,.1.1.2.7.5,2.1.6,3.3.6s1.2,0,1.7-.1c3.8-.7,6.1-3.5,10-3.7.1,0,.3,0,.4,0,.7,0,1.3,0,2,0l-.4.3-.9.4c.8.1,1.3.2,1.8.2s.7,0,.9,0c.1,0,.6,0,.6,0,0,0-.1.3-.2.4,0,0,0,.1-.1.2h-.2c-.1.2-.2.3-.4.4,0,0-.1,0-.2,0,0,0,0,.2.2.3.1,0,.2,0,.4.1h0c0,0,.1,0,.2,0l1.6-.2c-.3.5-.8.7-1.3,1,0,0-.2,0-.2.2h0c.8,0,1.5-.2,2.2-.4,0,0-.5.5-.5.6-.2.2-.5.4-.8.4v.2c.4,0,.7,0,1.1,0,.6,0,1.1,0,1.7-.1l-1.1.6c-.1.1,0,.1.1.2.1,0,.3,0,.5,0,.8,0,2-.1,2.6-.4.3-.2.5-.4.5-.8,1.3-.3,2.7-.8,3.8-1.5.3-.2.8-.5,1-.7s.1-.1.1-.2c-1.8.5-3.6.8-5.4.9l.9-.6.5-.7c0,0-.7-.1-.9-.2-.2,0-.5-.2-.8-.3-.3,0-.6,0-.8,0l1-.6.6-1.1c-.5-.2-1-.3-1.5-.3s-.5,0-.8,0l1.5-2c-.3-.3-.7-.3-1.1-.3s-.7,0-1.1.2l1.1-1.5c-.4-.2-.9-.4-1.4-.4s-.4,0-.6.1v-2c-.2,0-.3,0-.4,0-.3,0-.7.1-1,.1,0,0,0,0-.1,0s-.1,0-.1,0c1-.4,1.9-.9,3-1.1.4.7,1,1.1,1.8,1.4.4-.5.7-1,.8-1.6.1.4.5.8.6,1.1.2.6,0,.9.3.9s.3,0,.6-.2c.7-.3.9-.8,1.3-1.4,0,.7.5,1.3.4,2h0c.7,0,1.3-.3,1.8-.7.2-.1.4-.5.6-.5s.1,0,.2.1c.4.5.3,1.3.2,1.9.9,0,1.5-.5,2.1-1.1-.7,1.7-1.6,3.2-2.6,4.7h0c.6-.2,1.1-.5,1.6-.9,1.2-.9,2.3-1.9,3.2-3.1.2-.3.6-1,.8-1.3.1-.1.3-.1.5-.2.8-.5,1.5-1.3,2-2.2-.9-.6-1.4-1.7-1.3-2.7l.2.9c0,.3,1,1.5,1.3,1.5h0c0,0,0,0,.1,0,0,0,.1-.2.2-.3l.4-1.1h.2c0-.1,0-.2.1-.3.4-.9.6-1.3-.3-1.8ZM48.4,17.4h0c.7,0,2.8.5,3.3.9.6.5.2,1.7,0,2.3h0c0,0,0,0,0,0,0-.2,0-.3-.2-.6-.3-.5-.8-.8-1.4-.9,0,.2.2.4.3.6.2.5.1,1,.1,1.5l-.5-.7-.7-.3c.2.5.3.9.1,1.4,0,.1-.3.6-.5.7,0,0-.2,0-.3,0-.2,0-.4,0-.4-.3-.2-.7.5-1.8.4-2.7,0-.5-1.1-1.8-.2-1.8ZM67.3,42.1l-1,.5c-.3,0-1.9.6-2.2.6h0l-.3-.4,3.5-.7ZM64.2,41.2c0,.2-.7.6-1,.6s0,0,0,0l-.5-.7,1.5.2ZM63.2,38.9c0,0,.1,0,.2,0-.1.7-.7.9-1.3,1.1l-.5-.8c0-.1,1.1-.4,1.6-.4ZM62.4,36.6s0,0,0,0c-.4.6-.5,1.3-1.3,1.7-.1-.2-.4-.8-.3-1,.1-.2,1.2-.7,1.5-.7ZM61,35h0c.3,0,.2.2,0,.4-.1.1-.3.4-.4.5,0,0,0,.1,0,.1s0,0,0,0v-.9c0,0,.4-.1.5-.1ZM63.2,32c-.3-.3-.6-.5-.8-.9,0,0,0,0,0,0,.1,0,.9-.2,1.2-.2s0,0,0,0c0,.2-.4,1.1-.5,1.1ZM65.7,32.3s-.2-.6-.3-.7c-.1-.2-.4-.5-.4-.8h1.8c-.2.6-.5,1.2-1.1,1.5ZM68.2,32.9s0,0,0,0c0-.5-.3-.9-.2-1.4l1.3.7c0,.1-.7.7-1,.7ZM66.6,25.2c-.4,0-.8-.1-1.1-.3-.5-.2-.7-.8-1-1.2-.3-.4-.7-.8-1-1.3,1.6.4,3,1.3,4.4,2.2l1.6.7h-2.8ZM71.9,33c0,.1-.6.6-.9.6s0,0,0,0c0-.3,0-.7-.1-1l1.1.2c0,0,0,.1,0,.2ZM71.7,36.3l1.8-3.3h1c-.7,1.3-1.6,2.4-2.8,3.3ZM78.8,28.6s0,0-.1,0c-.7,0-1.2-.9-1.3-1.4h0s.4.2.5.3c.2.1,1.1.9.9,1.1Z"/>
      <path class="st2" d="M70.8,45.3h0Z"/>
      <g>
        <path class="st2" d="M83.7,24.6h-7.3c.2,0,.5.2.8.2.7.2,1.5.5,2.1.8,1.7.9,1.1,2.3.8,3h0s2.4,0,2.4,0c3.6.2,3.4,2.8,2.2,5.9-.9,2.2-2.3,4.5-4.6,5.5-1.9.8-3.8.4-5.6.5l2.9-7.9c-.3.3-.6.5-.9.7-.1,0-.3.1-.4.2,0,.1-.2.3-.2.4-.1.2-.3.5-.4.7-1.1,1.5-2.7,2.9-4.6,4.1l-2.1,5.8h0s8.3,0,8.3,0c3.8-.2,7.1-2,9.5-5.4,1.8-2.5,3.5-6.6,3.6-9.4,0-3.9-2.8-5.1-6.3-5.2ZM78.8,26.5c-.9-.5-2-.7-3.1-1.1l-4,10.9,1.8-3.3h1c-.7,1.3-1.6,2.4-2.8,3.3l-.3.9c1.2-.9,2.3-1.9,3.2-3.1.2-.3.6-1,.8-1.3.1-.1.3-.1.5-.2.8-.5,1.5-1.3,2-2.2-.9-.6-1.4-1.7-1.3-2.7l.2.9c0,.3,1,1.5,1.3,1.5h0c0,0,0,0,.1,0,0,0,.1-.2.2-.3l.4-1.1h.2c0-.1,0-.2.1-.3.4-.9.6-1.3-.3-1.8ZM78.8,28.6s0,0-.1,0c-.7,0-1.2-.9-1.3-1.4h0s.4.2.5.3c.2.1,1.1.9.9,1.1Z"/>
        <path class="st0" d="M203.7,25.7l-1.6,4.2c0,0,0,0,0,0-.2,0-.3-.2-.5-.3-2.6-1.4-7.2-1.6-9.9,1.1-1.9,1.8-3.6,6-3,8.1.5,1.9,3,2.2,4.9,1.8,0,0,.4,0,.4-.1l2-5.6h4.3s-3.2,8.7-3.2,8.7c-1.3.6-2.6.9-3.9,1h-1.5c-.4.1-.9.1-1.3.1-1.8,0-3.7-.5-4.9-1.7-2.2-2.1-1.5-5.7-.4-8.7,2.2-6.1,6.3-9.5,12.5-9.9h0s1.8,0,1.8,0h1.2c1.1.3,2.2.6,3.2,1.1Z"/>
        <polygon class="st0" points="237.3 24.7 237.3 24.8 235.8 28.8 230.8 28.8 224.9 44.7 220.6 44.7 226.5 28.8 221.6 28.8 223.1 24.7 237.3 24.7"/>
        <polygon class="st2" points="97.9 32.4 103.9 32.4 102.4 36.6 94.9 36.6 97.9 32.4"/>
        <polygon class="st2" points="107.2 24.7 105.7 28.6 96.9 28.6 95.6 32.4 97.1 32.4 94 36.6 94 36.6 92.5 40.5 101.5 40.5 100 44.6 86.9 44.6 94.2 24.6 107.2 24.6 107.2 24.7"/>
        <polygon class="st2" points="146.5 44.6 142.2 44.6 142.1 39.5 135.9 39.5 138.9 35.4 142 35.4 141.9 30.2 131.2 44.6 126.6 44.6 141.8 24.6 146 24.6 146.5 44.6"/>
        <polygon class="st0" points="157.6 28.7 156.2 32.4 164 32.4 162.5 36.6 154.6 36.6 151.6 44.6 147.5 44.6 154.9 24.6 167.3 24.6 165.8 28.7 157.6 28.7"/>
        <polygon class="st2" points="134.9 24.6 133.5 28.7 128.5 28.7 122.6 44.6 118.3 44.6 124.2 28.7 119.3 28.7 120.8 24.6 134.9 24.6"/>
        <polygon class="st2" points="114.6 40.5 113.1 44.6 102 44.6 109.4 24.6 113.6 24.6 107.7 40.5 114.6 40.5"/>
        <polygon class="st0" points="174.3 40.6 172.9 44.6 161.7 44.6 169.1 24.6 173.3 24.6 167.4 40.6 174.3 40.6"/>
        <polygon class="st0" points="180.3 30 186.2 25.5 179.1 44.6 174.9 44.6 180.3 30"/>
        <polygon class="st0" points="186.5 24.7 186.5 24.7 180.7 29.1 182.3 24.7 186.5 24.7"/>
        <polygon class="st0" points="211.6 32.5 208.6 36.6 206 36.6 203 44.7 198.7 44.7 206.1 24.7 210.3 24.7 207.5 32.5 211.6 32.5"/>
        <polygon class="st0" points="222.2 24.7 214.8 44.7 210.6 44.7 213.6 36.6 209.5 36.6 212.5 32.5 215.1 32.5 218 24.7 222.2 24.7"/>
      </g>
    </g>
  </g>
</svg>