<?xml version="1.0" encoding="UTF-8"?>
<svg id="Camada_1" xmlns="http://www.w3.org/2000/svg" version="1.1" xmlns:cc="http://creativecommons.org/ns#" xmlns:dc="http://purl.org/dc/elements/1.1/" xmlns:inkscape="http://www.inkscape.org/namespaces/inkscape" xmlns:rdf="http://www.w3.org/1999/02/22-rdf-syntax-ns#" xmlns:sodipodi="http://sodipodi.sourceforge.net/DTD/sodipodi-0.dtd" xmlns:svg="http://www.w3.org/2000/svg" viewBox="0 0 167.7 18.6">
  <!-- Generator: Adobe Illustrator 29.0.1, SVG Export Plug-In . SVG Version: 2.1.0 Build 192)  -->
  <defs>
    <style>
      .st0 {
        fill: #fff;
      }

      .st1 {
        fill: #fb0;
      }

      .st2 {
        fill: #005bc4;
      }

      .st3 {
        display: none;
      }
    </style>
  </defs>
  <g id="svg4057" inkscape:version="0.92.4 (5da689c313, 2019-01-14)">
    <sodipodi:namedview id="base" bordercolor="#666666" borderlayer="false" borderopacity="1.0" fit-margin-bottom="0" fit-margin-left="0" fit-margin-right="0" fit-margin-top="0" inkscape:current-layer="g3776" inkscape:cx="75.420679" inkscape:cy="-2.46571" inkscape:document-units="px" inkscape:pageopacity="0.0" inkscape:pageshadow="2" inkscape:showpageshadow="false" inkscape:window-height="837" inkscape:window-maximized="1" inkscape:window-width="1600" inkscape:window-x="-8" inkscape:window-y="-8" inkscape:zoom="3.959798" pagecolor="#ffffff" showborder="true" showgrid="true" showguides="false">
      <inkscape:grid id="grid4093" originx="-40.900311" originy="-961.9602" type="xygrid"/>
    </sodipodi:namedview>
    <g id="g3776" class="st3">
      <g id="g3772">
        <path id="path3752" class="st1" d="M6.3.5h9.7c4.7,0,4.7,2.6,4.1,4.4s-1.8,2.8-3.4,3.5c1.4.5,2.4,1.8,1.5,4.4-1.3,3.6-5,5.4-8.1,5.4H0L6.3.5ZM7,14h3.2c1.1,0,2.3-.3,2.7-1.7.4-1,0-1.6-1.3-1.6h-3.4s-1.2,3.3-1.2,3.3ZM9.3,7.4h2.9c1.1,0,2-.3,2.4-1.5.3-.9-.3-1.2-1.4-1.2h-2.9s-1,2.7-1,2.7Z" inkscape:connector-curvature="0"/>
        <path id="path3754" class="st1" d="M25,.5h14.7l-1.6,4.5h-9.3l-.8,2.2h8.4l-1.5,4.2h-8.4l-.7,2.2h9.5l-1.6,4.5h-15L25,.5Z" inkscape:connector-curvature="0"/>
        <path id="path3756" class="st1" d="M44.8,5h-5l1.6-4.5h15.4l-1.6,4.5h-5l-4.7,13.2h-5.5s4.8-13.2,4.8-13.2Z" inkscape:connector-curvature="0"/>
        <path id="path3758" class="st1" d="M61.9.5h5.3l.2,17.7h-5.6l.2-2.5h-5.6l-1.7,2.5h-5.5L61.9.5ZM62.2,11.9l.3-5.5h0l-3.7,5.5h3.4Z" inkscape:connector-curvature="0"/>
        <path id="path3760" class="st0" d="M75.2.5h13.7l-1.6,4.5h-8.2l-.8,2.2h7.1l-1.5,4.2h-7.1l-2.4,6.8h-5.5L75.2.5Z" inkscape:connector-curvature="0"/>
        <path id="path3762" class="st0" d="M91,.5h5.5l-4.7,13.1h7.9l-1.6,4.5h-13.3L91,.5Z" inkscape:connector-curvature="0"/>
        <path id="path3764" class="st0" d="M106.3.5h5.5l-6.3,17.7h-5.5L106.3.5Z" inkscape:connector-curvature="0"/>
        <path id="path3766" class="st0" d="M122.1,16.4c-1.8,1.6-3.9,2.2-5.8,2.2-5.2,0-7-4.1-5.2-9.1,2.4-6.8,8.1-9.5,12.1-9.5s6.5,2.5,5.8,6.6h-5.2c.3-1.3-.5-2.2-1.8-2.2-3.8,0-5,4-5.5,5.2-.6,1.7-.9,4.6,2.4,4.6s2.8-.6,3.5-2h-2.4l1.3-3.8h7.3l-3.5,9.8h-3.5s.5-1.8.5-1.8Z" inkscape:connector-curvature="0"/>
        <path id="path3768" class="st0" d="M134.4.5h5.5l-2.2,6.2h5.1l2.2-6.2h5.5l-6.3,17.7h-5.5l2.5-7h-5.1l-2.5,7h-5.5l6.3-17.7Z" inkscape:connector-curvature="0"/>
        <path id="path3770" class="st0" d="M155.7,5h-5l1.6-4.5h15.4l-1.6,4.5h-5l-4.7,13.2h-5.5s4.8-13.2,4.8-13.2Z" inkscape:connector-curvature="0"/>
      </g>
    </g>
    <g>
      <path class="st2" d="M26,4.8c0-3.5-2.6-4.7-5.8-4.8h-7l-6.8,18.3h7.6c3.5-.2,6.5-1.8,8.7-4.9,1.6-2.3,3.2-6.1,3.3-8.7h0ZM21.1,9.2c-.8,2-2.1,4.1-4.2,5-1.7.7-3.5.4-5.2.5l4-10.9h3.4c3.3.2,3.2,2.5,2,5.4Z"/>
      <path class="st0" d="M130.5,1l-1.4,3.9h0c-.1,0-.3-.2-.5-.3-2.4-1.3-6.6-1.4-9.1,1-1.7,1.6-3.3,5.5-2.7,7.5.5,1.7,2.8,2,4.5,1.6,0,0,.3,0,.4-.1l1.9-5.1h3.9l-3,8c-1.2.5-2.4.8-3.6,1h-1.4c-.4,0-.8.1-1.2.1-1.7,0-3.4-.4-4.5-1.5-2-1.9-1.4-5.2-.4-8,1.9-5.6,5.6-8.8,11.3-9.1h2.7c1,.3,2,.6,2.9,1h.2Z"/>
      <polygon class="st0" points="161.3 .2 161.3 .2 159.9 3.9 155.3 3.9 149.9 18.5 146 18.5 151.4 3.9 146.9 3.9 148.2 .1 161.3 .2"/>
      <polygon class="st2" points="33.4 7.2 38.8 7.2 37.4 11 30.5 11 33.4 7.2"/>
      <polygon class="st2" points="41.8 .1 40.5 3.8 32.4 3.8 31.2 7.2 32.6 7.2 29.8 11 29.8 11 28.4 14.7 36.6 14.7 35.2 18.4 23.2 18.4 30 0 41.8 0 41.8 .1"/>
      <polygon class="st2" points="78 18.4 74 18.4 73.9 13.7 68.2 13.7 70.9 9.9 73.8 9.9 73.7 5.2 63.9 18.4 59.7 18.4 73.6 0 77.4 0 78 18.4"/>
      <polygon class="st0" points="88.1 3.8 86.8 7.2 94 7.3 92.6 11.1 85.4 11.1 82.6 18.4 78.8 18.4 85.6 0 97.1 0 95.7 3.8 88.1 3.8"/>
      <polygon class="st2" points="67.3 0 66 3.8 61.4 3.8 56 18.4 52.1 18.4 57.5 3.8 52.9 3.8 54.3 0 67.3 0"/>
      <polygon class="st2" points="48.7 14.7 47.3 18.4 37 18.4 43.9 0 47.7 0 42.3 14.7 48.7 14.7"/>
      <polygon class="st0" points="103.5 14.7 102.1 18.4 91.9 18.4 98.7 0 102.5 0 97.2 14.7 103.5 14.7"/>
      <polygon class="st0" points="109 5 114.4 .9 107.9 18.4 104 18.4 109 5"/>
      <polygon class="st0" points="114.7 .1 114.7 .1 109.3 4.2 110.8 0 114.7 .1"/>
      <polygon class="st0" points="137.7 7.3 135 11.1 132.5 11.1 129.8 18.5 125.9 18.5 132.7 .1 136.5 .1 133.9 7.3 137.7 7.3"/>
      <polygon class="st0" points="147.4 .1 140.6 18.5 136.8 18.5 139.5 11.1 135.7 11.1 138.5 7.3 140.9 7.3 143.6 .1 147.4 .1"/>
    </g>
  </g>
</svg>