<?xml version="1.0" encoding="UTF-8"?>
<svg id="Ebene_1" xmlns="http://www.w3.org/2000/svg" version="1.1" viewBox="0 0 264.9 95.1">
  <!-- Generator: Adobe Illustrator 29.0.1, SVG Export Plug-In . SVG Version: 2.1.0 Build 192)  -->
  <defs>
    <style>
      .st0 {
        stroke: #fcfcfc;
        stroke-miterlimit: 10;
      }

      .st0, .st1 {
        fill: none;
      }

      .st2 {
        fill: #fff;
      }

      .st3 {
        fill: #b9b9b8;
      }

      .st4 {
        fill: #1b171b;
      }

      .st5 {
        fill: #7cb8ff;
      }
    </style>
  </defs>
  <path class="st5" d="M15.8,67.3c-4.7,0-8.5,3.8-8.5,8.5s5.2,8.6,8.5,11.6c2.7-2.7,8.5-7,8.5-11.6s-3.8-8.5-8.5-8.5ZM19.1,78.9h-1.9v-2.2h-2.9v2.2h-1.9v-6.2h1.9v2.2h2.9v-2.2h1.9v6.2Z"/>
  <g>
    <rect class="st1" x="189.7" y="31" width="67.5" height="13.5"/>
    <g>
      <path class="st2" d="M199.1,36.5c0,1.6-.4,2.9-1.3,3.8-.9.9-2.2,1.3-3.9,1.3h-2.8v-10h3.1c1.6,0,2.8.4,3.6,1.3s1.3,2.1,1.3,3.6ZM197.9,36.6c0-1.3-.3-2.3-1-2.9-.7-.7-1.6-1-2.9-1h-1.7v8h1.4c1.4,0,2.4-.3,3.1-1,.7-.8,1.1-1.8,1.1-3.1Z"/>
      <path class="st2" d="M204.6,34c.3,0,.6,0,.9,0l-.2,1.1c-.3,0-.6,0-.8,0-.6,0-1.1.2-1.6.7s-.6,1.1-.6,1.8v4h-1.1v-7.5h.9v1.4h.2c.3-.5.6-.9,1-1.1.4-.3.8-.4,1.3-.4Z"/>
      <path class="st2" d="M213.3,37.9c0,1.2-.3,2.2-.9,2.9-.6.7-1.5,1-2.5,1s-1.3-.2-1.8-.5-.9-.8-1.2-1.4-.4-1.3-.4-2.1c0-1.2.3-2.2.9-2.9.6-.7,1.5-1,2.5-1s1.9.3,2.5,1c.6.8.9,1.8.9,3ZM207.6,37.9c0,1,.2,1.7.6,2.2.4.5.9.8,1.7.8s1.3-.2,1.7-.7c.4-.5.6-1.2.6-2.2s-.2-1.7-.6-2.2c-.4-.5-1-.7-1.7-.7s-1.3.2-1.7.7c-.4.4-.6,1.1-.6,2.1Z"/>
      <path class="st2" d="M218.8,41.8c-.5,0-.9,0-1.3-.3s-.7-.5-1-.8h-.1c.1.4.1.9.1,1.2v3.1h-1.1v-10.9h.9l.2,1h.1c.3-.4.6-.7,1-.9s.8-.3,1.3-.3c1,0,1.8.3,2.3,1s.8,1.6.8,2.9-.3,2.2-.8,2.9c-.7.7-1.4,1.1-2.4,1.1ZM218.6,35c-.8,0-1.3.2-1.7.6-.4.4-.5,1.1-.5,2v.3c0,1.1.2,1.8.5,2.3.4.5.9.7,1.7.7s1.2-.3,1.5-.8c.4-.5.5-1.2.5-2.2s-.2-1.7-.5-2.1c-.3-.6-.8-.8-1.5-.8Z"/>
    </g>
    <line class="st0" x1="5.2" y1="90.3" x2="260.2" y2="90.3"/>
    <polygon points="251.7 81.6 238.4 85.2 247.7 60.2 226.4 88.9 196.4 84.2 215.7 90.2 243.1 90.2 251.7 81.6"/>
    <g>
      <g>
        <path class="st5" d="M224.9,77.6c-2.5-.9-5.1,0-6.7,1.9l-22.1-7.7-1.3,3.8,22.1,7.7c0,2.5,1.5,4.8,4,5.6,3.1,1.1,6.6-.6,7.6-3.7,1-3.1-.4-6.5-3.6-7.6Z"/>
        <path class="st4" d="M185.9,56.5c-6.8-2.4-14.1,0-18.4,5.2l-20.7-7.2c0-2.5-1.6-4.8-4-5.6-3.1-1.1-6.6.6-7.6,3.7-1.1,3.1.6,6.6,3.7,7.6,2.5.9,5.1,0,6.7-1.9l19.8,6.9,30.1,10.5,1.2.4c1.8-8.2-2.7-16.7-10.8-19.6Z"/>
      </g>
      <rect class="st3" x="141.7" y="23.8" width="2.9" height="46" transform="translate(51.7 166.5) rotate(-70.7)"/>
      <rect class="st3" x="223.4" y="52.4" width="2.9" height="46" transform="translate(79.5 262.7) rotate(-70.7)"/>
    </g>
  </g>
</svg>