<?xml version="1.0" encoding="UTF-8"?>
<svg id="Ebene_1" xmlns="http://www.w3.org/2000/svg" version="1.1" viewBox="0 0 264.9 95.1">
  <!-- Generator: Adobe Illustrator 29.0.1, SVG Export Plug-In . SVG Version: 2.1.0 Build 192)  -->
  <defs>
    <style>
      .st0 {
        stroke: #fcfcfc;
        stroke-miterlimit: 10;
      }

      .st0, .st1, .st2, .st3, .st4 {
        fill: none;
      }

      .st5 {
        fill: #fff;
      }

      .st2 {
        stroke-dasharray: 7.4 7.4;
      }

      .st2, .st3, .st4 {
        stroke: #7cb8ff;
        stroke-linecap: round;
        stroke-linejoin: round;
        stroke-width: 2px;
      }

      .st3 {
        stroke-dasharray: 7.8 7.8;
      }

      .st6 {
        fill: #b8b8b9;
      }

      .st7 {
        fill: #1b171b;
      }

      .st8 {
        fill: #7cb8ff;
      }
    </style>
  </defs>
  <path class="st8" d="M20.2,61.3h0c.2-.2.3-.4.3-.7,0-.6-.5-1-1-1s-.6,0-.7.3h0l-3,3.3-3-3.3h0c-.2-.2-.5-.3-.7-.3-.6,0-1,.5-1,1s0,.5.3.7h0l3.7,4.1c.2.2.5.3.8.3s.6,0,.8-.3l3.5-4.1Z"/>
  <g>
    <g>
      <path class="st8" d="M147.9,22.5c2.6,0,4.8,1.7,5.7,4h23.4v4h-23.4c-.8,2.3-3,4-5.7,4s-6-2.7-6-6,2.7-6,6-6Z"/>
      <path class="st7" d="M191.7,15.5c7.2,0,13.3,4.6,15.6,11h21.9c.8-2.3,3-4,5.7-4s6,2.7,6,6-2.7,6-6,6-4.8-1.7-5.7-4h-54c.8-8.4,7.9-15,16.5-15Z"/>
    </g>
    <rect class="st6" x="212.2" y="19" width="46" height="2.9"/>
    <rect class="st6" x="125.7" y="19" width="46" height="2.9"/>
  </g>
  <rect class="st1" x="42" y="43.2" width="86.5" height="32.1"/>
  <g>
    <path class="st5" d="M44.5,49.7v4.2h-1.2v-10h2.7c1.2,0,2.1.2,2.7.7s.9,1.2.9,2.1c0,1.3-.7,2.2-2,2.7l2.7,4.5h-1.4l-2.4-4.2h-2ZM44.5,48.7h1.6c.8,0,1.4-.2,1.8-.5s.6-.8.6-1.5-.2-1.1-.6-1.4-1-.4-1.9-.4h-1.5s0,3.8,0,3.8Z"/>
    <path class="st5" d="M55,54c-1.1,0-2-.3-2.6-1s-1-1.6-1-2.8.3-2.2.9-2.9,1.4-1.1,2.4-1.1,1.7.3,2.2.9.8,1.4.8,2.4v.7h-5.2c0,.9.2,1.5.7,2s1,.7,1.8.7,1.6-.2,2.4-.5v1c-.4.2-.8.3-1.1.4-.4.2-.8.2-1.3.2ZM54.7,47.2c-.6,0-1.1.2-1.4.6s-.6.9-.6,1.6h3.9c0-.7-.2-1.3-.5-1.6-.4-.4-.8-.6-1.4-.6Z"/>
    <path class="st5" d="M62.1,53.1h.6c.2,0,.3,0,.4,0v.9c0,0-.3,0-.5,0s-.5,0-.6,0c-1.4,0-2.2-.8-2.2-2.3v-4.5h-1.1v-.5l1.1-.5.5-1.6h.7v1.7h2.2v.9h-2.2v4.4c0,.5,0,.8.3,1s.4.4.8.4Z"/>
    <path class="st5" d="M65.7,46.4v4.9c0,.6,0,1.1.4,1.4s.7.5,1.3.5,1.4-.2,1.7-.6.5-1.1.5-2.1v-3.9h1.1v7.5h-.9l-.2-1h0c-.2.4-.6.7-1,.8s-.9.3-1.4.3c-.9,0-1.6-.2-2-.6s-.7-1.1-.7-2.1v-4.9h1.3s0-.2,0-.2Z"/>
    <path class="st5" d="M76.6,46.2c.3,0,.6,0,.9,0l-.2,1.1c-.3,0-.6,0-.8,0-.6,0-1.1.2-1.6.7s-.6,1.1-.6,1.8v4h-1.1v-7.5h.9v1.4h.2c.3-.5.6-.9,1-1.1s.9-.4,1.3-.4Z"/>
    <path class="st5" d="M84.1,53.9v-4.8c0-.6,0-1.1-.4-1.4s-.7-.5-1.3-.5-1.4.2-1.7.6-.5,1.1-.5,2.1v3.9h-1.1v-7.5h.9l.2,1h0c.2-.4.6-.7,1-.9.4-.2.9-.3,1.4-.3.9,0,1.6.2,2,.7.5.4.7,1.1.7,2.1v4.9h-1.3Z"/>
    <path class="st5" d="M93.6,53.1h.6c.2,0,.3,0,.4,0v.9c0,0-.3,0-.5,0s-.5,0-.6,0c-1.4,0-2.2-.8-2.2-2.3v-4.5h-1.1v-.5l1.1-.5.5-1.6h.7v1.7h2.2v.9h-2.2v4.4c0,.5,0,.8.3,1s.4.4.8.4Z"/>
    <path class="st5" d="M102.6,50.1c0,1.2-.3,2.2-.9,2.9-.6.7-1.5,1-2.5,1s-1.3-.2-1.8-.5-.9-.8-1.2-1.4-.4-1.3-.4-2.1c0-1.2.3-2.2.9-2.9.6-.7,1.5-1,2.5-1s1.9.3,2.5,1,.9,1.8.9,3ZM96.9,50.1c0,1,.2,1.7.6,2.2s.9.8,1.7.8,1.3-.2,1.7-.7c.4-.5.6-1.2.6-2.2s-.2-1.7-.6-2.2-1-.7-1.7-.7-1.3.2-1.7.7-.6,1.1-.6,2.1Z"/>
  </g>
  <g>
    <path class="st5" d="M50.9,70.7h-1.2v-4.7h-5.3v4.7h-1.2v-10h1.2v4.3h5.3v-4.3h1.2v10Z"/>
    <path class="st5" d="M60,66.9c0,1.2-.3,2.2-.9,2.9-.6.7-1.5,1-2.5,1s-1.3-.2-1.8-.5-.9-.8-1.2-1.4-.4-1.3-.4-2.1c0-1.2.3-2.2.9-2.9.6-.7,1.5-1,2.5-1s1.9.3,2.5,1,.9,1.8.9,3ZM54.3,66.9c0,1,.2,1.7.6,2.2s.9.8,1.7.8,1.3-.2,1.7-.7.6-1.2.6-2.2-.2-1.7-.6-2.2-1-.7-1.7-.7-1.3.2-1.7.7-.6,1.1-.6,2.1Z"/>
    <path class="st5" d="M71.5,70.7v-4.9c0-.6,0-1-.4-1.3s-.7-.4-1.2-.4-1.2.2-1.6.6-.5,1-.5,1.9v4.2h-1.1v-4.9c0-.6,0-1-.4-1.3s-.7-.4-1.2-.4-1.2.2-1.6.6c-.3.4-.5,1.1-.5,2.1v3.9h-1.1v-7.5h.9l.2,1h0c.2-.4.5-.6.9-.9s.8-.3,1.3-.3c1.2,0,1.9.4,2.3,1.3h0c.2-.4.5-.7,1-.9s.9-.3,1.4-.3c.8,0,1.5.2,1.9.7.4.4.6,1.1.6,2.1v4.9h-1.1v-.2h0Z"/>
    <path class="st5" d="M78.2,70.8c-1.1,0-2-.3-2.6-1s-1-1.6-1-2.8.3-2.2.9-2.9,1.4-1.1,2.4-1.1,1.7.3,2.2.9.8,1.4.8,2.4v.7h-5.2c0,.9.2,1.5.7,2s1,.7,1.8.7,1.6-.2,2.4-.5v1c-.4.2-.8.3-1.1.4-.4.2-.8.2-1.3.2ZM77.9,64c-.6,0-1.1.2-1.4.6s-.6.9-.6,1.6h3.9c0-.7-.2-1.3-.5-1.6-.4-.4-.9-.6-1.4-.6Z"/>
  </g>
  <g>
    <line class="st4" x1="120.1" y1="26.2" x2="116.1" y2="26.2"/>
    <line class="st2" x1="108.7" y1="26.2" x2="23.4" y2="26.2"/>
    <polyline class="st4" points="19.7 26.2 15.7 26.2 15.7 30.2"/>
    <line class="st3" x1="15.7" y1="38" x2="15.7" y2="49.6"/>
    <line class="st4" x1="15.7" y1="53.5" x2="15.7" y2="57.5"/>
  </g>
  <line class="st0" x1="5.2" y1="89" x2="260.2" y2="89"/>
  <path class="st8" d="M15.8,67.6c-4.7,0-8.5,3.8-8.5,8.5s5.2,8.6,8.5,11.6c2.7-2.7,8.5-7,8.5-11.6s-3.8-8.5-8.5-8.5ZM19.1,79.2h-1.9v-2.2h-2.9v2.2h-1.9v-6.2h1.9v2.2h2.9v-2.2h1.9v6.2Z"/>
</svg>