<?xml version="1.0" encoding="UTF-8"?>
<svg id="Ebene_1" xmlns="http://www.w3.org/2000/svg" version="1.1" viewBox="0 0 264.9 95.1">
  <!-- Generator: Adobe Illustrator 29.0.1, SVG Export Plug-In . SVG Version: 2.1.0 Build 192)  -->
  <defs>
    <style>
      .st0 {
        stroke: #fcfcfc;
        stroke-miterlimit: 10;
      }

      .st0, .st1, .st2 {
        fill: none;
      }

      .st3 {
        fill: #fff;
      }

      .st2 {
        stroke: #7cb8ff;
        stroke-dasharray: 8 8;
        stroke-linecap: round;
        stroke-linejoin: round;
        stroke-width: 2px;
      }

      .st4 {
        fill: #b8b8b9;
      }

      .st5 {
        fill: #1b171b;
      }

      .st6 {
        fill: #7cb8ff;
      }
    </style>
  </defs>
  <g>
    <g>
      <g>
        <path class="st6" d="M235.8,24.6c-2.6,0-4.8,1.7-5.7,4h-23.4v4h23.4c.8,2.3,3,4,5.7,4s6-2.7,6-6-2.7-6-6-6Z"/>
        <path class="st5" d="M191.9,17.6c-7.2,0-13.3,4.6-15.6,11h-21.9c-.8-2.3-3-4-5.7-4s-6,2.7-6,6,2.7,6,6,6,4.8-1.7,5.7-4h54c-.7-8.5-7.8-15-16.5-15Z"/>
      </g>
      <rect class="st4" x="125.4" y="21.1" width="46" height="2.9"/>
      <rect class="st4" x="211.9" y="21.1" width="46" height="2.9"/>
    </g>
    <rect class="st1" x="199.4" y="51.3" width="67.5" height="13.5"/>
    <g>
      <path class="st3" d="M200.8,61.9v-10h1.2v8.9h4.4v1.1h-5.6Z"/>
      <path class="st3" d="M212.5,61.9l-.2-1.1h-.1c-.4.5-.7.8-1.1,1-.4.2-.8.2-1.4.2s-1.3-.2-1.7-.6-.6-.9-.6-1.6c0-1.5,1.2-2.3,3.6-2.4h1.3v-.5c0-.6-.1-1-.4-1.3s-.7-.4-1.2-.4-1.3.2-2.1.6l-.3-.9c.4-.2.8-.4,1.2-.5s.9-.2,1.3-.2c.9,0,1.6.2,2,.6s.6,1,.6,1.9v5.1h-.9ZM209.9,61.1c.7,0,1.3-.2,1.7-.6s.6-.9.6-1.6v-.7h-1.1c-.9,0-1.6.2-2,.4-.4.2-.6.6-.6,1.2s.1.7.4.9c.3.3.6.4,1,.4Z"/>
      <path class="st3" d="M220.8,61.9v-4.8c0-.6-.1-1.1-.4-1.4s-.7-.5-1.3-.5-1.4.2-1.7.6c-.4.4-.5,1.1-.5,2.1v3.9h-1.2v-7.5h.9l.2,1h.1c.2-.4.6-.7,1-.9.4-.2.9-.3,1.4-.3.9,0,1.6.2,2,.7.5.4.7,1.1.7,2.1v4.9h-1.2Z"/>
      <path class="st3" d="M229.4,60.9h0c-.6.8-1.4,1.1-2.4,1.1s-1.7-.3-2.3-1c-.5-.7-.8-1.6-.8-2.9s.3-2.2.8-2.9,1.3-1,2.3-1,1.8.4,2.3,1.1h.1v-4h1.1v10.6h-.9l-.2-1ZM227.1,61.1c.8,0,1.3-.2,1.7-.6.3-.4.5-1.1.5-2v-.2c0-1.1-.2-1.8-.5-2.3-.4-.5-.9-.7-1.7-.7s-1.2.3-1.5.8c-.4.5-.5,1.2-.5,2.2s.2,1.7.5,2.2c.3.4.8.6,1.5.6Z"/>
    </g>
    <g>
      <path class="st6" d="M195.8,82.4h0c.2-.2.3-.4.3-.7,0-.6-.5-1-1-1s-.6,0-.7.3h0l-3,3.3-3-3.3h0c-.2-.2-.5-.3-.7-.3-.6,0-1,.5-1,1s.1.5.3.7h0l3.7,4.1c.2.2.5.3.8.3s.6,0,.8-.3l3.5-4.1Z"/>
      <line class="st2" x1="191.3" y1="41.8" x2="191.3" y2="79.8"/>
    </g>
    <line class="st0" x1="4.9" y1="91.1" x2="259.9" y2="91.1"/>
  </g>
  <path class="st6" d="M15.5,69.9c-4.7,0-8.5,3.8-8.5,8.5s5.2,8.6,8.5,11.6c2.7-2.7,8.5-7,8.5-11.6s-3.8-8.5-8.5-8.5ZM18.8,81.5h-1.9v-2.2h-2.9v2.2h-1.9v-6.2h1.9v2.2h2.9v-2.2h1.9v6.2Z"/>
</svg>