<?xml version="1.0" encoding="UTF-8"?>
<svg id="Camada_1" xmlns="http://www.w3.org/2000/svg" version="1.1" viewBox="0 0 500 500">
  <!-- Generator: Adobe Illustrator 29.0.1, SVG Export Plug-In . SVG Version: 2.1.0 Build 192)  -->
  <defs>
    <style>
      .st0 {
        fill: none;
      }

      .st1 {
        fill: #43ff6b;
      }
    </style>
  </defs>
  <path class="st1" d="M498.2,249.5c0,137.3-111.3,248.6-248.6,248.6S1,386.8,1,249.5,112.3.9,249.6.9s138.6,31.4,184.1,81.5c-99.2,60-164.2,134.1-220.6,230.2l-85.3-161-73.7,67,162.3,229.3c88.9-161.8,134.2-259.2,234.6-344.3,29.8,41,47.3,91.4,47.3,145.9Z"/>
  <path class="st0" d="M498.8,249.5c0,68.8-27.9,131.1-73,176.2-45.1,45.1-107.4,73-176.2,73s-131.1-27.9-176.2-73C28.4,380.6.5,318.3.5,249.5S28.4,118.4,73.5,73.4C118.5,28.3,180.9.4,249.6.4s131.1,27.9,176.2,73c45.1,45.1,73,107.4,73,176.2ZM425.1,74.1C380.2,29.2,318.2,1.4,249.6,1.4S119.1,29.2,74.2,74.1C29.3,119,1.5,181,1.5,249.5s27.7,130.5,72.7,175.4c44.9,44.9,106.9,72.7,175.4,72.7s130.5-27.7,175.4-72.7c44.9-44.9,72.7-106.9,72.7-175.4s-27.7-130.5-72.7-175.4Z"/>
  <path class="st0" d="M498.8,249.5c0,68.8-27.9,131.1-73,176.2-45.1,45.1-107.4,73-176.2,73s-131.1-27.9-176.2-73C28.4,380.6.5,318.3.5,249.5S28.4,118.4,73.5,73.4C118.5,28.3,180.9.4,249.6.4s131.1,27.9,176.2,73c45.1,45.1,73,107.4,73,176.2ZM425.1,74.1C380.2,29.2,318.2,1.4,249.6,1.4S119.1,29.2,74.2,74.1C29.3,119,1.5,181,1.5,249.5s27.7,130.5,72.7,175.4c44.9,44.9,106.9,72.7,175.4,72.7s130.5-27.7,175.4-72.7c44.9-44.9,72.7-106.9,72.7-175.4s-27.7-130.5-72.7-175.4Z"/>
</svg>