<?xml version="1.0" encoding="UTF-8"?>
<svg id="Capa_1" xmlns="http://www.w3.org/2000/svg" version="1.1" viewBox="0 0 92 92">
  <!-- Generator: Adobe Illustrator 29.0.1, SVG Export Plug-In . SVG Version: 2.1.0 Build 192)  -->
  <defs>
    <style>
      .st0 {
        fill: #7cb8ff;
      }
    </style>
  </defs>
  <path class="st0" d="M45.4,0C20,.3-.3,21.2,0,46.6s21.2,45.7,46.6,45.4c25.4-.3,45.7-21.2,45.4-46.6C91.7,20,70.8-.3,45.4,0ZM45.2,74h-.3c-3.9,0-6.7-3-6.6-6.9,0-3.8,2.9-6.5,6.7-6.5h.2c4,0,6.7,3,6.6,6.9,0,3.8-2.7,6.5-6.6,6.5ZM61.7,41.3c-.9,1.3-2.9,2.9-5.5,4.9l-2.8,1.9c-1.5,1.2-2.5,2.3-2.8,3.4-.3.9-.4,1.1-.4,2.9v.5h-10.7v-.9c0-3.7.2-5.9,1.8-7.7,2.4-2.8,7.8-6.3,8-6.4.8-.6,1.4-1.2,1.9-1.9,1.1-1.6,1.6-2.8,1.6-4,0-1.7-.5-3.2-1.5-4.6-.9-1.3-2.7-2-5.3-2s-4.3.8-5.4,2.5-1.6,3.5-1.6,5.4v.5h-11.1v-.5c.3-6.8,2.7-11.6,7.2-14.5,2.8-1.8,6.3-2.7,10.4-2.7s9.9,1.3,13.4,3.9c3.6,2.6,5.4,6.5,5.4,11.6,0,2.7-.8,5.3-2.6,7.7Z"/>
</svg>