<?xml version="1.0" encoding="UTF-8"?>
<svg id="Capa_1" xmlns="http://www.w3.org/2000/svg" version="1.1" viewBox="0 0 141.7 141.7">
  <!-- Generator: Adobe Illustrator 29.0.1, SVG Export Plug-In . SVG Version: 2.1.0 Build 192)  -->
  <defs>
    <style>
      .st0 {
        fill: #43ff6b;
      }
    </style>
  </defs>
  <path class="st0" d="M119.1,65.3l-21,21c-11.6,11.6-30.4,11.6-42,0-1.8-1.8-3.3-3.9-4.5-6l9.8-9.8c.5-.5,1-.7,1.6-1.1.7,2.3,1.9,4.5,3.7,6.3,5.8,5.8,15.2,5.8,21,0l21-21c5.8-5.8,5.8-15.2,0-21s-15.2-5.8-21,0l-7.5,7.5c-6.1-2.4-12.6-3-18.9-2.1l15.9-15.9c11.6-11.6,30.4-11.6,42,0,11.5,11.8,11.5,30.6-.1,42.1h0ZM63.6,99.8l-7.5,7.5c-5.8,5.8-15.2,5.8-21,0s-5.8-15.2,0-21l21-21c5.8-5.8,15.2-5.8,21,0,1.8,1.8,3,4,3.7,6.3.6-.3,1.1-.6,1.6-1l9.8-9.7c-1.2-2.1-2.7-4.2-4.5-6-11.6-11.6-30.4-11.6-42,0l-21,21c-11.6,11.6-11.6,30.4,0,42,11.6,11.6,30.4,11.6,42,0l15.9-15.9c-6.4.8-12.9.2-19-2.2h0Z"/>
</svg>